<svg width="137.000000" height="26.000000" viewBox="0 0 137 26" fill="none" xmlns="http://www.w3.org/2000/svg" xmlns:xlink="http://www.w3.org/1999/xlink">
	<desc>
			Created with Pixso.
	</desc>
	<defs/>
	<path id="Combined Shape" d="M14.5408 0L14.5408 3.5014L15.2297 3.45801C24.0862 3.15417 29.8708 10.7791 29.8708 10.7791C29.8708 10.7791 23.2393 18.9104 16.335 18.9104C15.7322 18.9104 15.1436 18.8525 14.5549 18.7512L14.5549 20.9215C15.043 20.9794 15.5454 21.0228 16.0334 21.0228C22.4641 21.0228 27.1147 17.7095 31.6221 13.803C32.3684 14.4107 35.4258 15.872 36.0574 16.5086C31.7798 20.1258 21.8037 23.0339 16.1484 23.0339C15.6028 23.0339 15.0862 23.005 14.5693 22.9471L14.5693 26L39 26L39 0L14.5408 0ZM3.99048 11.1987C3.99048 11.1987 7.50244 5.96814 14.5408 5.41235L14.5408 7.75513C9.80371 8.276 6.94727 11.4591 6.94727 11.4591C6.94727 11.4591 8.59814 17.6951 14.5408 18.7657L14.5408 16.9138C11.1963 15.7708 10.0908 11.8208 10.0908 11.8208C10.0908 11.8208 12.043 9.47693 14.5264 9.78076L14.5408 9.78076L14.5408 7.75513C14.9712 7.71173 15.4019 7.6828 15.8325 7.69727C19.9092 7.69727 22.335 10.8948 22.335 10.8948L19.019 13.7017C17.5408 11.1987 17.0383 10.0991 14.5549 9.79523L14.5549 16.9138C15.158 17.1163 15.7896 17.2176 16.4353 17.2176C21.2727 17.2176 25.7798 10.9093 25.7798 10.9093C25.7798 10.9093 21.6028 5.17975 15.2297 5.38232C15.0049 5.38232 14.7798 5.39618 14.5549 5.41034L14.5549 3.5014C6.74634 4.138 0 10.7935 0 10.7935C0 10.7935 3.81812 21.9343 14.5408 22.9471L14.5408 20.9215C6.67456 19.9377 3.99048 11.1987 3.99048 11.1987ZM14.5549 5.41034L14.5549 5.41125C14.5503 5.41162 14.5454 5.41199 14.5408 5.41235L14.5408 5.41125L14.5549 5.41034ZM46 21.9856L46 5L54.635 5C58.8225 5 63.1113 5.90607 63.1113 12.6083L63.1113 21.9856L58.4038 21.9856L58.4038 14.2335C58.4038 11.8604 58.1006 10.5516 57.3352 9.74622C56.7432 9.11334 55.877 8.81134 54.635 8.81134L50.8518 8.79694L50.8518 21.9856L46 21.9856ZM72.887 18.4763L76.9014 5.02875L81.8108 5.02875L76.2659 22L69.3347 22L63.8477 5.02875L69.0459 5.02875L72.887 18.4763ZM83.8325 5.02875L88.6409 5.02875L88.6409 22L83.8325 22L83.8325 5.02875ZM91.5867 22L91.5867 5.02875L98.3301 5.02875C102.171 5.02875 104.741 5.48901 106.503 7.86212C107.499 9.1853 108.062 11.3139 108.062 13.7014C108.062 16.3046 107.398 18.692 106.359 19.7708C104.9 21.3096 103.543 22 99.3843 22L91.5867 22ZM110.315 22L110.315 5.02875L115.124 5.02875L115.124 22L110.315 22ZM117.087 21.9856L123.802 5.02875L130.228 5.02875L137 21.9713L131.845 21.9713L130.834 18.9797L122.892 18.9797L121.824 21.9856L117.087 21.9856ZM126.921 8.12097L129.838 16.0601L123.917 16.0601L126.921 8.12097ZM96.3518 8.71063L98.4167 8.71063C101.42 8.71063 103.355 10.0482 103.355 13.5287C103.355 17.0093 101.42 18.3613 98.4167 18.3613L96.3518 18.3613L96.3518 8.71063Z" clip-rule="evenodd" fill="#FFFFFF" fill-opacity="1.000000" fill-rule="evenodd"/>
</svg>
