<svg width="129.000000" height="17.000000" viewBox="0 0 129 17" fill="none" xmlns="http://www.w3.org/2000/svg" xmlns:xlink="http://www.w3.org/1999/xlink">
	<desc>
			Created with Pixso.
	</desc>
	<defs/>
	<path id="Combined Shape" d="M3.35449 3.42816C1.6543 3.05249 0.367676 1.54974 0 0.046936L21 0L21 0.046936C20.6323 1.54974 19.3916 2.95856 17.6455 3.42816L12.407 3.42816L12.1313 3.52209L12.1313 17L8.86865 17L8.86865 3.52209L8.59302 3.42816L3.35449 3.42816ZM44.948 3.41876L32.4307 3.41876C30.6689 3.04407 29.3708 1.4986 29 0L48.3325 0C48.0078 1.4986 46.7097 3.09088 44.948 3.41876ZM113.098 3.41876L125.616 3.41876C127.377 3.09088 128.629 1.4986 129 0L109.714 0C110.085 1.4986 111.383 3.04407 113.098 3.41876ZM60.9888 3.37189L72.5791 3.37189C74.3408 2.85675 75.7778 1.4986 76.1489 0.046814L57.79 0.046814L57.79 10.0688L72.8108 10.0688L72.8108 13.5812L61.0352 13.5812C59.1809 14.0964 57.6045 15.3609 56.8164 17L76.0562 17L76.0562 6.74377L61.0352 6.74377L60.9888 3.37189ZM103.223 13.6749C102.853 15.0799 101.972 16.2975 100.349 17L85.3281 17L85.3281 0.046814L88.6199 0.046814L88.6199 13.6749L103.223 13.6749ZM32.4307 10.1157L44.948 10.1157C46.7097 9.7879 48.0078 8.19562 48.3325 6.69696L29 6.69696C29.3708 8.19562 30.6689 9.74103 32.4307 10.1157ZM110.224 17L110.224 6.74377L128.583 6.74377L128.583 17L125.337 17L125.337 10.1625L113.469 10.1625L113.469 17L110.224 17ZM44.948 17L32.4307 17C30.6689 16.6722 29.3708 15.0799 29 13.5812L48.3325 13.5812C48.0078 15.0799 46.7097 16.6722 44.948 17Z" clip-rule="evenodd" fill="#FFFFFF" fill-opacity="1.000000" fill-rule="evenodd"/>
</svg>
