<svg width="418.000000" height="659.000000" viewBox="0 0 418 659" fill="none" xmlns="http://www.w3.org/2000/svg" xmlns:xlink="http://www.w3.org/1999/xlink">
	<desc>
			Created with Pixso.
	</desc>
	<defs>
		<filter id="filter_0_4914_dd" x="-0.432129" y="-0.430542" width="417.649414" height="658.861084" filterUnits="userSpaceOnUse" color-interpolation-filters="sRGB">
			<feFlood flood-opacity="0" result="BackgroundImageFix"/>
			<feColorMatrix in="SourceAlpha" type="matrix" values="0 0 0 0 0 0 0 0 0 0 0 0 0 0 0 0 0 0 127 0" result="hardAlpha"/>
			<feOffset dx="25" dy="25"/>
			<feGaussianBlur stdDeviation="26.6667"/>
			<feComposite in2="hardAlpha" operator="out" k2="-1" k3="1"/>
			<feColorMatrix type="matrix" values="0 0 0 0 0.21176 0 0 0 0 0.32549 0 0 0 0 0.41961 0 0 0 0.3 0"/>
			<feBlend mode="normal" in2="BackgroundImageFix" result="effect_dropShadow_1"/>
			<feBlend mode="normal" in="SourceGraphic" in2="effect_dropShadow_1" result="shape"/>
		</filter>
		<clipPath id="clip0_4922">
			<rect id="Screen" width="233.000000" height="465.000000" transform="translate(67.074219 66.444458)" fill="white" fill-opacity="0"/>
		</clipPath>
		<filter id="filter_0_4928_dd" x="69.000000" y="216.000000" width="248.000000" height="117.000000" filterUnits="userSpaceOnUse" color-interpolation-filters="sRGB">
			<feFlood flood-opacity="0" result="BackgroundImageFix"/>
			<feColorMatrix in="SourceAlpha" type="matrix" values="0 0 0 0 0 0 0 0 0 0 0 0 0 0 0 0 0 0 127 0" result="hardAlpha"/>
			<feMorphology radius="-10" in="" result="BackgroundImageFix"/>
			<feOffset dx="10" dy="10"/>
			<feGaussianBlur stdDeviation="8.33333"/>
			<feComposite in2="hardAlpha" operator="out" k2="-1" k3="1"/>
			<feColorMatrix type="matrix" values="0 0 0 0 0.21176 0 0 0 0 0.32549 0 0 0 0 0.41961 0 0 0 0.25 0"/>
			<feBlend mode="normal" in2="BackgroundImageFix" result="effect_dropShadow_1"/>
			<feBlend mode="normal" in="SourceGraphic" in2="effect_dropShadow_1" result="shape"/>
		</filter>
		<clipPath id="clip0_4929">
			<rect id="Group 28" width="187.000000" height="11.000000" transform="translate(90.000000 237.000000)" fill="white" fill-opacity="0"/>
		</clipPath>
		<clipPath id="clip0_4927">
			<rect id="Group 29" width="218.000000" height="87.000000" transform="translate(74.000000 221.000000)" fill="white" fill-opacity="0"/>
		</clipPath>
		<linearGradient id="paint_linear_0_4916_0" x1="62.014648" y1="54.000000" x2="62.014648" y2="66.323944" gradientUnits="userSpaceOnUse">
			<stop stop-color="#454545"/>
			<stop offset="0.226279" stop-color="#999999"/>
			<stop offset="1.000000" stop-color="#FFFFFF"/>
		</linearGradient>
		<linearGradient id="paint_linear_0_4917_0" x1="312.103394" y1="139.747864" x2="302.642456" y2="139.747864" gradientUnits="userSpaceOnUse">
			<stop stop-color="#FFFFFF" stop-opacity="0.000000"/>
			<stop offset="0.222178" stop-color="#BABABA"/>
			<stop offset="0.546780" stop-color="#FFFFFF" stop-opacity="0.000000"/>
			<stop offset="1.000000" stop-color="#FFFFFF" stop-opacity="0.000000"/>
		</linearGradient>
		<linearGradient id="paint_linear_0_4918_0" x1="54.567978" y1="139.485748" x2="64.044052" y2="139.485748" gradientUnits="userSpaceOnUse">
			<stop stop-color="#FFFFFF" stop-opacity="0.000000"/>
			<stop offset="0.222178" stop-color="#BABABA"/>
			<stop offset="0.546780" stop-color="#FFFFFF" stop-opacity="0.000000"/>
			<stop offset="1.000000" stop-color="#FFFFFF" stop-opacity="0.000000"/>
		</linearGradient>
		<linearGradient id="paint_linear_0_4925_0" x1="67.906952" y1="66.444458" x2="67.906952" y2="527.824341" gradientUnits="userSpaceOnUse">
			<stop stop-color="#9CB6CD"/>
			<stop offset="0.420564" stop-color="#9AB3CA"/>
			<stop offset="0.716592" stop-color="#557496"/>
			<stop offset="1.000000" stop-color="#475178"/>
		</linearGradient>
	</defs>
	<g filter="url(#filter_0_4914_dd)">
		<path id="body" d="M87.77 54.56L279 54.56C297.35 54.56 312.21 68.8 312.21 86.36L312.21 521.63C312.21 539.19 297.35 553.43 279 553.43L87.77 553.43C69.43 553.43 54.56 539.19 54.56 521.63L54.56 86.36C54.56 68.8 69.43 54.56 87.77 54.56Z" fill="#213648" fill-opacity="1.000000" fill-rule="evenodd"/>
		<path id="body" d="M279 54.56C297.35 54.56 312.21 68.8 312.21 86.36L312.21 521.63C312.21 539.19 297.35 553.43 279 553.43L87.77 553.43C69.43 553.43 54.56 539.19 54.56 521.63L54.56 86.36C54.56 68.8 69.43 54.56 87.77 54.56L279 54.56Z" stroke="#979797" stroke-opacity="1.000000" stroke-width="0.000000"/>
	</g>
	<g opacity="0.595562">
		<path id="reflect-frame-top" d="M279.74 54L86.92 54C77.91 54.54 69.61 58.65 62.01 66.32C66.9 62.05 75.62 56.34 87.15 56.34C87.15 56.34 271.82 56.34 279.51 56.34C291.04 56.34 299.76 62.05 304.65 66.32C297.05 58.65 288.75 54.54 279.74 54Z" fill="url(#paint_linear_0_4916_0)" fill-opacity="0.650000" fill-rule="evenodd"/>
		<path id="reflect-frame-top" d="M86.92 54C77.91 54.54 69.61 58.65 62.01 66.32C66.9 62.05 75.62 56.34 87.15 56.34C87.15 56.34 271.82 56.34 279.51 56.34C291.04 56.34 299.76 62.05 304.65 66.32C297.05 58.65 288.75 54.54 279.74 54L86.92 54Z" stroke="#979797" stroke-opacity="1.000000" stroke-width="0.000000"/>
	</g>
	<g opacity="0.750000">
		<path id="reflect-frame-right" d="M307 516.67L307 88.98C307 77.5 302.78 73.26 300.26 70.54C297.75 67.81 297.64 66.42 301.25 68.48C304.87 70.54 312.1 76.53 312.1 88.98L312.1 516.67C312.1 529.12 304.87 535.11 301.25 537.16C297.64 539.22 297.75 537.83 300.26 535.11C302.78 532.38 307 528.14 307 516.67Z" fill="url(#paint_linear_0_4917_0)" fill-opacity="1.000000" fill-rule="evenodd"/>
		<path id="reflect-frame-right" d="M307 88.98C307 77.5 302.78 73.26 300.26 70.54C297.75 67.81 297.64 66.42 301.25 68.48C304.87 70.54 312.1 76.53 312.1 88.98L312.1 516.67C312.1 529.12 304.87 535.11 301.25 537.16C297.64 539.22 297.75 537.83 300.26 535.11C302.78 532.38 307 528.14 307 516.67L307 88.98Z" stroke="#979797" stroke-opacity="1.000000" stroke-width="0.000000"/>
	</g>
	<g opacity="0.750000">
		<path id="reflect-frame-left" d="M59.67 516.67L59.67 88.98C59.67 77.5 63.88 73.26 66.4 70.54C68.92 67.81 69.02 66.42 65.41 68.48C61.79 70.54 54.56 76.53 54.56 88.98L54.56 516.67C54.56 529.12 61.79 535.11 65.41 537.16C69.02 539.22 68.92 537.83 66.4 535.11C63.88 532.38 59.67 528.14 59.67 516.67Z" fill="url(#paint_linear_0_4918_0)" fill-opacity="1.000000" fill-rule="evenodd"/>
		<path id="reflect-frame-left" d="M59.67 88.98C59.67 77.5 63.88 73.26 66.4 70.54C68.92 67.81 69.02 66.42 65.41 68.48C61.79 70.54 54.56 76.53 54.56 88.98L54.56 516.67C54.56 529.12 61.79 535.11 65.41 537.16C69.02 539.22 68.92 537.83 66.4 535.11C63.88 532.38 59.67 528.14 59.67 516.67L59.67 88.98Z" stroke="#979797" stroke-opacity="1.000000" stroke-width="0.000000"/>
	</g>
	<path id="vol+" d="M52 157.55C52 156.45 52.89 155.55 54 155.55L54.96 155.55C56.06 155.55 56.96 156.45 56.96 157.55L56.96 217.9C56.96 219.01 56.06 219.9 54.96 219.9L54 219.9C52.89 219.9 52 219.01 52 217.9L52 157.55Z" fill="#2E423C" fill-opacity="1.000000" fill-rule="evenodd"/>
	<path id="vol+" d="M54.96 155.55C56.06 155.55 56.96 156.45 56.96 157.55L56.96 217.9C56.96 219.01 56.06 219.9 54.96 219.9L54 219.9C52.89 219.9 52 219.01 52 217.9L52 157.55C52 156.45 52.89 155.55 54 155.55L54.96 155.55Z" stroke="#979797" stroke-opacity="1.000000" stroke-width="0.000000"/>
	<path id="power" d="M309.53 210.04C309.53 208.93 310.43 208.04 311.53 208.04L312.5 208.04C313.6 208.04 314.5 208.93 314.5 210.04L314.5 252.99C314.5 254.09 313.6 254.99 312.5 254.99L311.53 254.99C310.43 254.99 309.53 254.09 309.53 252.99L309.53 210.04Z" fill="#2E423C" fill-opacity="1.000000" fill-rule="evenodd"/>
	<path id="power" d="M312.5 208.04C313.6 208.04 314.5 208.93 314.5 210.04L314.5 252.99C314.5 254.09 313.6 254.99 312.5 254.99L311.53 254.99C310.43 254.99 309.53 254.09 309.53 252.99L309.53 210.04C309.53 208.93 310.43 208.04 311.53 208.04L312.5 208.04Z" stroke="#979797" stroke-opacity="1.000000" stroke-width="0.000000"/>
	<rect id="Screen" width="233.000000" height="465.000000" transform="translate(67.074219 66.444458)" fill="#FFFFFF" fill-opacity="0"/>
	<g clip-path="url(#clip0_4922)">
		<path id="Screen Mask" d="M160.67 66.44L86.26 66.44C75.16 66.44 67.07 74 67.07 83.88L67.07 506.27C67.07 519.15 79.57 530.56 93.71 530.56L273.04 530.56C286.66 530.56 299.68 519.06 299.68 506.27L299.68 85.02C299.68 73.18 290.89 66.51 280.49 66.44L204.9 66.44C204.61 66.49 199.42 68.62 197.23 74C195.03 79.38 190.62 83.67 185.78 83.67L180.17 83.67C177.87 83.67 171.82 81.44 168.76 74C165.69 66.56 160.96 66.49 160.67 66.44Z" fill="#FFFFFF" fill-opacity="1.000000" fill-rule="evenodd"/>
		<path id="Screen Mask" d="M86.26 66.44C75.16 66.44 67.07 74 67.07 83.88L67.07 506.27C67.07 519.15 79.57 530.56 93.71 530.56L273.04 530.56C286.66 530.56 299.68 519.06 299.68 506.27L299.68 85.02C299.68 73.18 290.89 66.51 280.49 66.44L204.9 66.44C204.61 66.49 199.42 68.62 197.23 74C195.03 79.38 190.62 83.67 185.78 83.67L180.17 83.67C177.87 83.67 171.82 81.44 168.76 74C165.69 66.56 160.96 66.49 160.67 66.44L86.26 66.44Z" stroke="#979797" stroke-opacity="0" stroke-width="0.000000"/>
		<mask id="mask0_4923" mask-type="alpha" maskUnits="userSpaceOnUse" x="67.074219" y="66.444458" width="232.611389" height="464.123016">
			<path id="Screen Mask" d="M160.67 66.44L86.26 66.44C75.16 66.44 67.07 74 67.07 83.88L67.07 506.27C67.07 519.15 79.57 530.56 93.71 530.56L273.04 530.56C286.66 530.56 299.68 519.06 299.68 506.27L299.68 85.02C299.68 73.18 290.89 66.51 280.49 66.44L204.9 66.44C204.61 66.49 199.42 68.62 197.23 74C195.03 79.38 190.62 83.67 185.78 83.67L180.17 83.67C177.87 83.67 171.82 81.44 168.76 74C165.69 66.56 160.96 66.49 160.67 66.44Z" fill="#FFFFFF" fill-opacity="1.000000" fill-rule="evenodd"/>
			<path id="Screen Mask" d="M86.26 66.44C75.16 66.44 67.07 74 67.07 83.88L67.07 506.27C67.07 519.15 79.57 530.56 93.71 530.56L273.04 530.56C286.66 530.56 299.68 519.06 299.68 506.27L299.68 85.02C299.68 73.18 290.89 66.51 280.49 66.44L204.9 66.44C204.61 66.49 199.42 68.62 197.23 74C195.03 79.38 190.62 83.67 185.78 83.67L180.17 83.67C177.87 83.67 171.82 81.44 168.76 74C165.69 66.56 160.96 66.49 160.67 66.44L86.26 66.44Z" stroke="#979797" stroke-opacity="0" stroke-width="0.000000"/>
		</mask>
		<g mask="url(#mask0_4923)">
			<rect id="Rectangle" x="67.000000" y="66.444458" width="233.000000" height="465.000000" fill="url(#paint_linear_0_4925_0)" fill-opacity="1.000000"/>
			<rect id="Rectangle" x="67.000000" y="66.444458" width="233.000000" height="465.000000" stroke="#979797" stroke-opacity="0" stroke-width="0.000000"/>
		</g>
		<g mask="url(#mask0_4923)">
			<path id="12:49" d="M156.49 192.29L156.49 194.6L173.48 194.6L173.48 190.66L161.69 190.66L161.69 190.45Q161.69 189.78 161.95 189.23Q162.1 188.91 162.33 188.64C162.76 188.14 163.32 187.69 164.03 187.3C164.73 186.89 165.5 186.5 166.33 186.12C167.17 185.73 168.02 185.32 168.86 184.87C169.7 184.42 170.47 183.9 171.18 183.3C171.88 182.7 172.45 181.98 172.88 181.14Q173.52 179.88 173.52 178.13C173.52 176.73 173.17 175.51 172.49 174.47Q172.33 174.22 172.14 173.99Q171.17 172.76 169.58 172.02C168.33 171.43 166.84 171.14 165.12 171.14Q162.09 171.14 160.09 172.2Q158.56 173.01 157.6 174.26Q157.32 174.64 157.08 175.06Q156.89 175.4 156.74 175.75Q156.08 177.27 156.06 179.06L160.52 179.06Q160.8 177.13 161.91 176.12Q161.97 176.07 162.03 176.02Q162.38 175.73 162.77 175.52Q163.75 175.01 164.99 175.01C166.11 175.01 166.99 175.3 167.63 175.89C168.28 176.48 168.6 177.24 168.6 178.16Q168.6 178.83 168.36 179.38Q168.2 179.74 167.95 180.05C167.51 180.58 166.93 181.07 166.2 181.51Q165.13 182.15 163.84 182.79C162.97 183.21 162.11 183.67 161.24 184.15C160.39 184.63 159.6 185.19 158.88 185.83C158.16 186.46 157.58 187.2 157.15 188.07C156.71 188.92 156.49 189.93 156.49 191.11L156.49 192.29ZM210.4 194.12C211.65 194.67 212.99 194.95 214.43 194.95C216.46 194.95 218.2 194.49 219.66 193.59C221.12 192.67 222.24 191.29 223.02 189.46C223.81 187.61 224.21 185.31 224.21 182.55C224.21 180.23 223.82 178.22 223.05 176.52C222.3 174.8 221.2 173.48 219.77 172.55Q219.58 172.42 219.37 172.3Q217.37 171.14 214.7 171.14C212.95 171.14 211.43 171.48 210.13 172.15C208.83 172.82 207.81 173.75 207.09 174.93C206.36 176.12 206 177.46 206 178.98C206 180.48 206.34 181.78 207.02 182.88Q207.39 183.46 207.86 183.95Q208.71 184.83 209.87 185.41C211.09 186 212.48 186.29 214.05 186.29C214.91 186.29 215.69 186.18 216.4 185.96C217.1 185.72 217.72 185.4 218.24 184.98Q218.95 184.41 219.38 183.68Q219.44 183.59 219.49 183.49C219.61 185.34 219.47 186.83 219.04 187.97Q218.45 189.57 217.31 190.36Q217.23 190.42 217.15 190.47C216.32 190.99 215.35 191.25 214.24 191.25C213.24 191.25 212.4 190.97 211.74 190.42C211.08 189.85 210.65 189.12 210.46 188.23L206.01 188.23C206.11 189.58 206.55 190.77 207.34 191.78C208.13 192.78 209.15 193.56 210.4 194.12ZM146.5 177.27L146.5 194.6L151.24 194.6L151.24 171.46L148.13 171.46C148.06 172.12 147.82 172.69 147.41 173.17Q146.8 173.88 145.57 174.26C144.76 174.5 143.69 174.63 142.37 174.63L142.37 177.27L146.5 177.27ZM200.04 171.46L195.45 171.46L184.9 185.64L184.9 189.48L195.56 189.48L195.54 194.6L200.04 194.6L200.04 189.48L203.61 189.48L203.61 185.56L200.04 185.56L200.04 171.46ZM216.73 182.15C216.13 182.44 215.5 182.58 214.85 182.58C213.71 182.58 212.78 182.25 212.08 181.59C211.37 180.92 211.02 179.98 211.02 178.77C211.02 177.96 211.19 177.25 211.52 176.63C211.85 176.01 212.3 175.53 212.88 175.19C213.45 174.85 214.11 174.68 214.85 174.68C215.65 174.68 216.35 174.87 216.94 175.27C217.55 175.66 218.02 176.23 218.35 176.98C218.69 177.72 218.86 178.6 218.85 179.64C218.85 180.12 218.65 180.58 218.25 181.03C217.86 181.48 217.35 181.85 216.73 182.15ZM195.56 185.56L189.22 185.56L195.56 177.08L195.56 185.56ZM181.7 183.46L181.7 178.45L176.58 178.45L176.58 183.46L181.7 183.46ZM181.7 194.5L181.7 189.51L176.58 189.51L176.58 194.5L181.7 194.5Z" fill="#FFFFFF" fill-opacity="1.000000" fill-rule="evenodd"/>
		</g>
	</g>
	<rect id="Screen" width="233.000000" height="465.000000" transform="translate(67.074219 66.444458)" stroke="#979797" stroke-opacity="1.000000" stroke-width="1.000000"/>
	<rect id="Group 29" width="218.000000" height="87.000000" transform="translate(74.000000 221.000000)" fill="#FFFFFF" fill-opacity="0"/>
	<g clip-path="url(#clip0_4927)">
		<g filter="url(#filter_0_4928_dd)">
			<rect id="Rectangle" x="74.000000" y="221.000000" rx="5.000000" width="218.000000" height="87.000000" fill="#FBFCFE" fill-opacity="1.000000"/>
			<rect id="Rectangle" x="74.000000" y="221.000000" rx="5.000000" width="218.000000" height="87.000000" stroke="#979797" stroke-opacity="0" stroke-width="0.000000"/>
		</g>
		<rect id="Group 28" width="187.000000" height="11.000000" transform="translate(90.000000 237.000000)" fill="#FFFFFF" fill-opacity="0"/>
		<g clip-path="url(#clip0_4929)">
			<path id="PayAPI" d="M90.81 239.39L90.81 246.62L92.28 246.62L92.28 244.04L93.66 244.04Q94.44 244.04 95.01 243.77C95.4 243.59 95.7 243.33 95.91 242.99Q96.23 242.48 96.23 241.76C96.23 241.25 96.11 240.82 95.87 240.47Q95.75 240.3 95.62 240.16Q95.31 239.85 94.88 239.67Q94.26 239.39 93.47 239.39L90.81 239.39ZM109.81 239.39L107.22 246.62L108.69 246.62L109.29 244.95L111.89 244.95L112.48 246.62L113.94 246.62L111.35 239.39L109.81 239.39ZM115.02 239.39L115.02 246.62L116.49 246.62L116.49 244.04L117.87 244.04C118.39 244.04 118.85 243.95 119.23 243.77C119.62 243.59 119.92 243.33 120.13 242.99Q120.45 242.48 120.45 241.76C120.45 241.25 120.33 240.82 120.08 240.47C119.84 240.11 119.52 239.85 119.1 239.67C118.68 239.48 118.21 239.39 117.68 239.39L115.02 239.39ZM123 239.39L121.55 239.39L121.55 246.62L123 246.62L123 239.39ZM93.62 242.91L92.26 242.91L92.26 240.51L93.6 240.51Q93.95 240.51 94.23 240.65Q94.37 240.72 94.5 240.83C94.74 241.04 94.87 241.33 94.87 241.69Q94.87 241.98 94.75 242.23Q94.66 242.41 94.52 242.56Q94.4 242.67 94.27 242.75Q93.99 242.91 93.62 242.91ZM117.83 242.91L116.48 242.91L116.48 240.51L117.81 240.51C118.17 240.51 118.47 240.62 118.71 240.83C118.96 241.04 119.08 241.33 119.08 241.69Q119.08 241.98 118.97 242.23Q118.88 242.41 118.73 242.56C118.5 242.79 118.2 242.91 117.83 242.91ZM111.54 243.67L109.62 243.67L110.59 240.8L111.54 243.67ZM97.62 246.54C97.88 246.66 98.18 246.72 98.51 246.72Q99.05 246.72 99.44 246.51C99.71 246.36 99.93 246.1 100.11 245.73L100.23 246.62L101.45 246.62L101.45 242.99Q101.45 242.48 101.23 242.12C101.09 241.87 100.86 241.68 100.54 241.55Q100.06 241.35 99.26 241.35C98.83 241.35 98.45 241.41 98.11 241.53C97.77 241.65 97.5 241.83 97.31 242.07Q97.29 242.09 97.27 242.11Q97.01 242.46 96.98 242.99L98.2 242.99C98.27 242.75 98.4 242.58 98.59 242.49C98.78 242.39 98.98 242.34 99.2 242.34C99.49 242.33 99.7 242.4 99.84 242.53C99.98 242.65 100.05 242.83 100.05 243.07L100.05 243.38L99.4 243.39C98.49 243.4 97.82 243.55 97.4 243.85C96.97 244.14 96.76 244.57 96.76 245.14Q96.76 245.65 96.99 246C97.15 246.23 97.35 246.41 97.62 246.54ZM102.61 248.18Q102.83 248.27 103.36 248.27Q103.76 248.27 104.11 248.14C104.34 248.05 104.56 247.89 104.76 247.66C104.96 247.43 105.15 247.09 105.33 246.65L107.42 241.45L106 241.45L104.74 244.82L103.5 241.45L102.06 241.45L104.07 246.41L103.97 246.69C103.96 246.73 103.94 246.78 103.91 246.84C103.88 246.9 103.83 246.96 103.75 247.02C103.68 247.07 103.58 247.12 103.44 247.15C103.31 247.19 103.13 247.2 102.9 247.19L102.39 247.17L102.39 248.1L102.61 248.18ZM99.38 245.69C99.26 245.74 99.13 245.76 99 245.76C98.76 245.76 98.56 245.69 98.39 245.56C98.23 245.42 98.14 245.24 98.14 245C98.14 244.79 98.21 244.62 98.33 244.5C98.46 244.37 98.63 244.28 98.84 244.23C99.05 244.17 99.28 244.14 99.52 244.14L100.05 244.13L100.05 244.9C100.05 245.01 100.02 245.11 99.96 245.22C99.9 245.32 99.82 245.41 99.72 245.5C99.62 245.58 99.51 245.64 99.38 245.69Z" fill="#BA4270" fill-opacity="1.000000" fill-rule="evenodd"/>
			<g opacity="0.500000">
				<path id="Just Now" d="M237.47 245.9C237.56 245.63 237.6 245.3 237.6 244.92L237.6 239.39L236.68 239.39L236.68 244.65Q236.68 245.29 236.49 245.56C236.37 245.74 236.15 245.83 235.82 245.83Q235.52 245.83 235.32 245.75C235.19 245.69 235.07 245.65 234.96 245.61L234.9 246.5C234.97 246.53 235.12 246.57 235.34 246.63C235.57 246.69 235.81 246.72 236.07 246.72Q236.68 246.72 237.01 246.51C237.23 246.37 237.39 246.17 237.47 245.9ZM261.95 239.39L261.02 239.39L261.02 245.01L257.2 239.39L256.32 239.39L256.32 246.62L257.24 246.62L257.24 240.92L261.12 246.62L261.95 246.62L261.95 239.39ZM251.33 242.13L252.5 242.13L252.5 241.45L251.33 241.45L251.33 239.95L250.65 239.95L250.43 241.45L249.56 241.45L249.56 242.13L250.4 242.13L250.4 245.37C250.4 245.65 250.44 245.88 250.52 246.07C250.6 246.26 250.73 246.4 250.93 246.5Q251.23 246.65 251.76 246.65C251.95 246.65 252.11 246.64 252.24 246.62C252.37 246.6 252.46 246.58 252.53 246.56L252.53 245.94L251.96 245.94C251.8 245.94 251.67 245.93 251.58 245.91C251.49 245.88 251.43 245.83 251.39 245.75C251.35 245.66 251.33 245.52 251.33 245.34L251.33 242.13ZM245.69 246.56C246 246.67 246.33 246.72 246.69 246.72Q247.32 246.72 247.76 246.54C248.06 246.41 248.29 246.23 248.44 246.01C248.6 245.78 248.68 245.5 248.68 245.19C248.68 245.06 248.66 244.93 248.62 244.79C248.59 244.65 248.52 244.52 248.43 244.39C248.34 244.26 248.22 244.15 248.06 244.05C247.91 243.94 247.71 243.86 247.47 243.8L246.43 243.54C246.15 243.47 245.93 243.38 245.78 243.28C245.64 243.17 245.56 243.02 245.56 242.84Q245.56 242.58 245.69 242.4Q245.76 242.3 245.87 242.23Q246.18 242.03 246.68 242.03C247 242.03 247.25 242.1 247.43 242.25C247.62 242.39 247.74 242.59 247.77 242.84L248.58 242.84C248.57 242.35 248.39 241.98 248.04 241.73C247.7 241.48 247.25 241.35 246.69 241.35Q246.03 241.35 245.59 241.55C245.3 241.68 245.08 241.87 244.93 242.1Q244.89 242.16 244.86 242.23Q244.71 242.52 244.72 242.9Q244.72 243.31 244.91 243.59Q244.99 243.7 245.09 243.79C245.34 244 245.68 244.16 246.09 244.26L247.16 244.53C247.4 244.58 247.57 244.66 247.68 244.78C247.79 244.89 247.85 245.05 247.85 245.24C247.85 245.51 247.74 245.71 247.53 245.84C247.32 245.97 247.04 246.03 246.69 246.03C246.47 246.03 246.27 246 246.09 245.93C245.91 245.86 245.75 245.76 245.63 245.63C245.51 245.49 245.43 245.32 245.38 245.12L244.54 245.12C244.59 245.49 244.72 245.79 244.92 246.03Q245.02 246.14 245.13 246.24Q245.37 246.44 245.69 246.56ZM264.4 246.42C264.76 246.62 265.18 246.72 265.65 246.72Q266.42 246.72 266.94 246.39C267.29 246.16 267.56 245.85 267.73 245.45C267.91 245.05 268 244.58 268 244.06C268 243.48 267.91 242.98 267.71 242.58C267.52 242.18 267.25 241.87 266.89 241.67Q266.37 241.35 265.65 241.35C265.15 241.35 264.72 241.46 264.36 241.69Q264.2 241.79 264.06 241.92Q263.74 242.21 263.55 242.64C263.37 243.04 263.28 243.52 263.28 244.06Q263.28 244.92 263.57 245.51C263.77 245.91 264.05 246.21 264.4 246.42ZM240.27 246.61C240.51 246.68 240.77 246.72 241.04 246.72C241.28 246.72 241.51 246.69 241.72 246.62C241.93 246.54 242.11 246.42 242.26 246.26C242.41 246.1 242.52 245.89 242.59 245.63L242.68 246.62L243.42 246.62L243.42 241.45L242.5 241.45L242.5 244.82Q242.5 245.3 242.26 245.59Q242.21 245.65 242.15 245.71C241.92 245.9 241.61 246 241.23 246Q240.6 246 240.29 245.69C240.08 245.48 239.98 245.2 239.98 244.87L239.98 241.45L239.05 241.45L239.05 244.96C239.05 245.25 239.1 245.51 239.21 245.73C239.31 245.94 239.46 246.12 239.64 246.27Q239.66 246.28 239.68 246.3Q239.94 246.5 240.27 246.61ZM274.26 246.62L275.83 241.45L274.96 241.45L273.83 245.42L273.75 245.42L272.54 241.45L271.84 241.45L270.67 245.43L270.59 245.43L269.41 241.45L268.55 241.45L270.15 246.62L271.05 246.62L272.17 242.81L273.35 246.62L274.26 246.62ZM266.44 245.76C266.23 245.91 265.96 245.99 265.65 245.99C265.31 245.99 265.03 245.9 264.82 245.73C264.6 245.56 264.45 245.32 264.35 245.03C264.25 244.73 264.2 244.4 264.2 244.04C264.2 243.63 264.25 243.27 264.36 242.98C264.48 242.69 264.64 242.46 264.86 242.31C265.07 242.15 265.34 242.08 265.65 242.08C265.99 242.08 266.27 242.16 266.48 242.34C266.69 242.51 266.85 242.74 266.94 243.04C267.04 243.33 267.09 243.67 267.09 244.04Q267.09 244.64 266.92 245.08C266.81 245.37 266.65 245.6 266.44 245.76Z" fill="#36536B" fill-opacity="1.000000" fill-rule="evenodd"/>
			</g>
		</g>
		<path id="The payment has been" d="M96.7 255.19L96.7 262.62L97.62 262.62L97.62 259.17Q97.62 258.86 97.76 258.65Q97.78 258.62 97.8 258.6Q97.84 258.55 97.89 258.5Q98.06 258.34 98.3 258.26C98.5 258.18 98.72 258.14 98.95 258.14Q99.44 258.14 99.75 258.38Q99.76 258.39 99.77 258.4C99.99 258.56 100.09 258.8 100.09 259.11L100.09 262.62L101.02 262.62L101.02 258.93Q101.02 258.53 100.85 258.23Q100.82 258.16 100.78 258.1C100.62 257.88 100.4 257.7 100.13 257.57C99.85 257.45 99.55 257.39 99.21 257.39C98.94 257.39 98.69 257.43 98.48 257.51Q98.17 257.62 97.95 257.81C97.8 257.93 97.68 258.07 97.6 258.21L97.6 255.19L96.7 255.19ZM153.08 255.19L153.08 262.62L154 262.62L154 259.17Q154 258.86 154.15 258.65Q154.17 258.62 154.19 258.6C154.32 258.44 154.48 258.33 154.68 258.26C154.89 258.18 155.1 258.14 155.33 258.14C155.67 258.14 155.95 258.23 156.16 258.4C156.37 258.56 156.48 258.8 156.48 259.11L156.48 262.62L157.4 262.62L157.4 258.93C157.4 258.61 157.32 258.34 157.16 258.1Q157.1 258.01 157.03 257.93Q156.82 257.71 156.51 257.57C156.24 257.45 155.94 257.39 155.6 257.39Q155.18 257.39 154.87 257.51C154.66 257.58 154.48 257.68 154.33 257.81C154.19 257.93 154.07 258.07 153.98 258.21L153.98 255.19L153.08 255.19ZM173.55 262.6C173.76 262.68 174.02 262.72 174.32 262.72C174.8 262.72 175.21 262.61 175.53 262.39C175.85 262.16 176.1 261.84 176.26 261.44Q176.51 260.83 176.51 260.01Q176.51 258.7 175.93 258.03C175.55 257.57 175.04 257.35 174.39 257.35C174.14 257.35 173.92 257.38 173.73 257.45Q173.45 257.54 173.24 257.69C173.1 257.78 172.98 257.88 172.89 257.99C172.8 258.09 172.74 258.18 172.7 258.27L172.7 255.19L171.77 255.19L171.77 262.62L172.47 262.62L172.57 261.56C172.6 261.66 172.66 261.78 172.73 261.91C172.8 262.04 172.91 262.17 173.04 262.29C173.17 262.42 173.34 262.52 173.55 262.6ZM239.41 262.03C239.8 262.49 240.33 262.72 241 262.72C241.31 262.72 241.56 262.68 241.77 262.6C241.98 262.52 242.15 262.42 242.28 262.29C242.42 262.17 242.52 262.04 242.59 261.91C242.67 261.78 242.72 261.66 242.75 261.56L242.85 262.62L243.56 262.62L243.56 255.19L242.63 255.19L242.63 258.27C242.59 258.18 242.52 258.09 242.43 257.99C242.34 257.88 242.23 257.78 242.09 257.69C241.95 257.59 241.78 257.51 241.59 257.45C241.4 257.38 241.18 257.35 240.93 257.35Q240.24 257.35 239.77 257.68L239.76 257.68C239.45 257.9 239.21 258.21 239.05 258.61C238.9 259.01 238.82 259.48 238.82 260.01C238.82 260.9 239.02 261.57 239.41 262.03ZM255.52 255.19L255.52 262.62L256.44 262.62L256.44 259.17C256.44 258.94 256.5 258.75 256.62 258.6C256.75 258.44 256.91 258.33 257.12 258.26C257.32 258.18 257.54 258.14 257.77 258.14C258.11 258.14 258.38 258.23 258.59 258.4C258.8 258.56 258.91 258.8 258.91 259.11L258.91 262.62L259.84 262.62L259.84 258.93Q259.84 258.53 259.67 258.23Q259.64 258.16 259.6 258.1C259.44 257.88 259.22 257.7 258.95 257.57C258.67 257.45 258.37 257.39 258.03 257.39Q257.62 257.39 257.3 257.51C257.09 257.58 256.91 257.68 256.77 257.81C256.62 257.93 256.5 258.07 256.42 258.21L256.42 255.19L255.52 255.19ZM90.23 255.39L90.23 256.24L92.56 256.24L92.56 262.62L93.49 262.62L93.49 256.24L95.7 256.24L95.7 255.39L90.23 255.39ZM249.04 255.39L249.04 256.24L251.38 256.24L251.38 262.62L252.31 262.62L252.31 256.24L254.51 256.24L254.51 255.39L249.04 255.39ZM148.29 258.13L149.45 258.13L149.45 257.45L148.29 257.45L148.29 255.95L147.61 255.95L147.38 257.45L146.52 257.45L146.52 258.13L147.36 258.13L147.36 261.37C147.36 261.65 147.39 261.88 147.47 262.07C147.55 262.26 147.69 262.4 147.89 262.5C148.08 262.6 148.36 262.65 148.72 262.65C148.91 262.65 149.06 262.64 149.19 262.62C149.32 262.6 149.42 262.58 149.48 262.56L149.48 261.94L148.92 261.94Q148.68 261.94 148.54 261.91C148.45 261.88 148.38 261.83 148.34 261.75C148.3 261.66 148.29 261.52 148.29 261.34L148.29 258.13ZM103.28 261.14C103.17 260.87 103.12 260.58 103.12 260.25L106.82 260.25L106.82 259.91C106.82 259.39 106.74 258.94 106.56 258.56C106.39 258.17 106.13 257.88 105.79 257.67C105.46 257.46 105.05 257.35 104.56 257.35Q103.83 257.35 103.3 257.68Q103.29 257.69 103.27 257.7C102.92 257.93 102.65 258.25 102.46 258.66C102.28 259.07 102.18 259.54 102.18 260.09C102.18 260.64 102.29 261.11 102.49 261.5C102.7 261.89 102.99 262.2 103.35 262.41C103.72 262.62 104.15 262.72 104.63 262.72C104.96 262.72 105.28 262.66 105.59 262.54C105.9 262.42 106.16 262.24 106.37 262C106.59 261.76 106.73 261.46 106.79 261.11L105.92 261.11C105.85 261.4 105.7 261.62 105.46 261.78C105.22 261.93 104.94 262.01 104.61 262.01C104.28 262.01 104 261.93 103.77 261.77C103.55 261.61 103.39 261.4 103.28 261.14ZM110.33 257.45L110.33 264.23L111.26 264.23L111.26 261.69C111.32 261.79 111.39 261.91 111.48 262.03C111.57 262.15 111.68 262.26 111.81 262.37C111.94 262.47 112.09 262.56 112.27 262.62C112.45 262.69 112.66 262.72 112.89 262.72C113.34 262.72 113.73 262.61 114.06 262.4C114.38 262.19 114.63 261.88 114.8 261.47C114.97 261.06 115.06 260.56 115.06 259.97Q115.06 259.07 114.79 258.5C114.61 258.11 114.37 257.82 114.05 257.64C113.74 257.45 113.37 257.35 112.96 257.35C112.72 257.35 112.51 257.38 112.33 257.45C112.14 257.51 111.98 257.59 111.84 257.69C111.7 257.79 111.59 257.9 111.49 258.01C111.4 258.13 111.32 258.24 111.26 258.35L111.25 257.45L110.33 257.45ZM116.74 262.54Q117.13 262.72 117.63 262.72Q118.1 262.72 118.51 262.55Q118.58 262.52 118.64 262.49C118.95 262.33 119.21 262.05 119.41 261.65L119.47 262.62L120.26 262.62L120.26 259.01C120.26 258.65 120.19 258.35 120.04 258.1C119.89 257.85 119.67 257.67 119.37 257.54C119.07 257.41 118.7 257.35 118.25 257.35C117.83 257.35 117.47 257.41 117.16 257.53C116.86 257.65 116.62 257.83 116.45 258.06C116.28 258.29 116.19 258.57 116.17 258.91L116.98 258.91C117.05 258.6 117.2 258.38 117.42 258.24C117.65 258.1 117.91 258.03 118.2 258.03Q118.8 258.03 119.09 258.31C119.28 258.49 119.37 258.74 119.37 259.06L119.37 259.47L118.45 259.49C117.57 259.51 116.92 259.66 116.52 259.94C116.12 260.22 115.92 260.65 115.92 261.22C115.92 261.54 116 261.81 116.14 262.03C116.29 262.25 116.49 262.43 116.74 262.54ZM127.01 257.45L127.01 262.62L127.93 262.62L127.93 259.17C127.93 258.92 127.99 258.73 128.11 258.57C128.23 258.42 128.38 258.31 128.56 258.24C128.74 258.17 128.92 258.14 129.1 258.14C129.25 258.14 129.42 258.17 129.58 258.24C129.74 258.31 129.87 258.41 129.98 258.55Q130.01 258.59 130.03 258.63Q130.14 258.81 130.14 259.06L130.14 262.62L131.07 262.62L131.07 259.17C131.07 258.91 131.13 258.7 131.25 258.55C131.38 258.4 131.53 258.29 131.72 258.23C131.89 258.17 132.07 258.14 132.23 258.14C132.41 258.14 132.58 258.17 132.74 258.24C132.9 258.31 133.03 258.43 133.14 258.6C133.24 258.78 133.28 259.02 133.28 259.33L133.28 262.62L134.22 262.62L134.22 259.24Q134.22 258.67 134.06 258.3C133.95 258.05 133.81 257.86 133.64 257.73Q133.43 257.55 133.18 257.46Q133.14 257.45 133.1 257.44C132.9 257.38 132.71 257.35 132.53 257.35C132.19 257.35 131.88 257.43 131.61 257.59C131.33 257.74 131.12 257.94 130.96 258.2C130.87 258.01 130.74 257.86 130.58 257.73C130.41 257.6 130.23 257.51 130.03 257.45C129.84 257.38 129.65 257.35 129.47 257.35Q128.87 257.35 128.49 257.6Q128.12 257.86 127.9 258.2L127.9 257.45L127.01 257.45ZM136.48 261.14C136.38 260.87 136.32 260.58 136.32 260.25L140.03 260.25L140.03 259.91Q140.03 259.13 139.76 258.56C139.59 258.17 139.33 257.88 139 257.67C138.66 257.46 138.25 257.35 137.76 257.35Q137.03 257.35 136.5 257.68Q136.49 257.69 136.48 257.7C136.12 257.93 135.85 258.25 135.67 258.66C135.48 259.07 135.39 259.54 135.39 260.09C135.39 260.64 135.49 261.11 135.7 261.5Q135.9 261.89 136.21 262.16Q136.37 262.3 136.56 262.41C136.92 262.62 137.35 262.72 137.83 262.72Q138.13 262.72 138.41 262.66Q138.6 262.61 138.79 262.54C139.1 262.42 139.36 262.24 139.58 262Q139.64 261.93 139.69 261.85Q139.92 261.53 140 261.11L139.12 261.11C139.06 261.4 138.9 261.62 138.66 261.78C138.43 261.93 138.14 262.01 137.81 262.01C137.48 262.01 137.2 261.93 136.98 261.77C136.76 261.61 136.59 261.4 136.48 261.14ZM159.37 262.54C159.63 262.66 159.92 262.72 160.26 262.72Q160.73 262.72 161.13 262.55Q161.2 262.52 161.27 262.49C161.58 262.33 161.84 262.05 162.04 261.65L162.1 262.62L162.89 262.62L162.89 259.01C162.89 258.65 162.82 258.35 162.67 258.1Q162.63 258.03 162.58 257.97Q162.36 257.69 162 257.54C161.7 257.41 161.33 257.35 160.88 257.35C160.46 257.35 160.1 257.41 159.79 257.53C159.49 257.65 159.25 257.83 159.08 258.06C158.91 258.29 158.82 258.57 158.8 258.91L159.61 258.91C159.68 258.6 159.82 258.38 160.05 258.24C160.27 258.1 160.53 258.03 160.83 258.03C161.23 258.03 161.53 258.12 161.72 258.31Q161.78 258.37 161.83 258.44Q162 258.69 162 259.06L162 259.47L161.08 259.49C160.19 259.51 159.55 259.66 159.15 259.94C158.75 260.22 158.55 260.65 158.55 261.22C158.55 261.54 158.62 261.81 158.77 262.03C158.91 262.25 159.12 262.43 159.37 262.54ZM165.21 262.56C165.52 262.67 165.86 262.72 166.22 262.72Q166.85 262.72 167.29 262.54C167.59 262.41 167.81 262.23 167.97 262.01C168.13 261.78 168.21 261.5 168.21 261.19C168.21 261.06 168.19 260.93 168.15 260.79C168.11 260.65 168.05 260.52 167.95 260.39C167.86 260.26 167.74 260.15 167.58 260.04C167.43 259.94 167.23 259.86 166.99 259.79L165.96 259.54C165.67 259.47 165.46 259.38 165.31 259.28Q165.2 259.2 165.15 259.09Q165.09 258.98 165.09 258.84Q165.09 258.58 165.21 258.4Q165.28 258.3 165.4 258.23Q165.71 258.03 166.2 258.03C166.52 258.03 166.77 258.1 166.96 258.25C167.15 258.39 167.26 258.59 167.29 258.84L168.11 258.84Q168.1 258.35 167.86 258.02Q167.74 257.86 167.57 257.73C167.23 257.48 166.77 257.35 166.21 257.35C165.78 257.35 165.41 257.42 165.12 257.55C164.83 257.68 164.61 257.87 164.46 258.1C164.31 258.32 164.24 258.59 164.24 258.9Q164.24 259.31 164.43 259.59Q164.51 259.7 164.62 259.79C164.87 260 165.2 260.16 165.62 260.26L166.69 260.53C166.92 260.58 167.09 260.66 167.2 260.78C167.32 260.89 167.37 261.04 167.37 261.24C167.37 261.51 167.27 261.71 167.05 261.84C166.84 261.97 166.56 262.03 166.21 262.03C166 262.03 165.8 262 165.61 261.93C165.43 261.86 165.28 261.76 165.15 261.63C165.03 261.49 164.95 261.32 164.9 261.12L164.06 261.12C164.12 261.49 164.25 261.79 164.45 262.03C164.65 262.27 164.91 262.44 165.21 262.56ZM178.53 261.14C178.43 260.87 178.37 260.58 178.37 260.25L182.08 260.25L182.08 259.91Q182.08 259.13 181.81 258.56C181.64 258.17 181.39 257.88 181.05 257.67Q180.54 257.35 179.81 257.35C179.31 257.35 178.89 257.47 178.53 257.7C178.18 257.93 177.91 258.25 177.72 258.66C177.53 259.07 177.44 259.54 177.44 260.09C177.44 260.64 177.54 261.11 177.75 261.5Q177.95 261.89 178.26 262.16Q178.42 262.3 178.61 262.41C178.98 262.62 179.4 262.72 179.88 262.72Q180.18 262.72 180.46 262.66Q180.65 262.61 180.84 262.54C181.15 262.42 181.41 262.24 181.63 262Q181.69 261.93 181.74 261.85Q181.97 261.53 182.05 261.11L181.17 261.11C181.11 261.4 180.95 261.62 180.71 261.78Q180.7 261.79 180.68 261.79Q180.34 262.01 179.86 262.01C179.53 262.01 179.25 261.93 179.03 261.77C178.81 261.61 178.64 261.4 178.53 261.14ZM184.17 261.14C184.06 260.87 184.01 260.58 184.01 260.25L187.71 260.25L187.71 259.91Q187.71 259.13 187.45 258.56C187.28 258.17 187.02 257.88 186.68 257.67Q186.18 257.35 185.45 257.35C184.95 257.35 184.52 257.47 184.16 257.7C183.81 257.93 183.54 258.25 183.35 258.66C183.17 259.07 183.07 259.54 183.07 260.09C183.07 260.64 183.18 261.11 183.38 261.5Q183.59 261.89 183.9 262.16Q184.06 262.3 184.24 262.41C184.61 262.62 185.04 262.72 185.52 262.72Q185.81 262.72 186.09 262.66Q186.29 262.61 186.48 262.54C186.79 262.42 187.05 262.24 187.26 262Q187.33 261.93 187.38 261.85Q187.61 261.53 187.68 261.11L186.81 261.11C186.74 261.4 186.59 261.62 186.35 261.78Q186.33 261.79 186.32 261.79Q185.97 262.01 185.5 262.01C185.17 262.01 184.89 261.93 184.66 261.77C184.44 261.61 184.28 261.4 184.17 261.14ZM197.06 257.45L197.06 264.23L197.99 264.23L197.99 261.69C198.05 261.79 198.12 261.91 198.2 262.03C198.29 262.15 198.4 262.26 198.53 262.37C198.67 262.47 198.82 262.56 199 262.62C199.18 262.69 199.38 262.72 199.61 262.72Q200.27 262.72 200.75 262.42Q200.77 262.41 200.78 262.4C201.11 262.19 201.35 261.88 201.52 261.47C201.7 261.06 201.78 260.56 201.78 259.97Q201.78 259.07 201.52 258.5Q201.29 257.98 200.89 257.71Q200.84 257.67 200.78 257.64Q200.73 257.61 200.68 257.58Q200.25 257.35 199.69 257.35C199.45 257.35 199.24 257.38 199.05 257.45C198.87 257.51 198.71 257.59 198.57 257.69C198.43 257.79 198.32 257.9 198.22 258.01C198.13 258.13 198.05 258.24 197.99 258.35L197.98 257.45L197.06 257.45ZM203 257.45L203 262.62L203.92 262.62L203.92 259.41C203.92 259.19 203.96 259.01 204.03 258.85C204.11 258.7 204.22 258.58 204.36 258.49Q204.56 258.35 204.83 258.29C205.01 258.25 205.21 258.24 205.41 258.25C205.47 258.25 205.53 258.26 205.61 258.26C205.69 258.27 205.75 258.29 205.8 258.31L205.8 257.42C205.76 257.39 205.71 257.38 205.63 257.37C205.56 257.35 205.48 257.35 205.41 257.35C205.19 257.35 204.98 257.39 204.78 257.47C204.58 257.55 204.4 257.67 204.24 257.84C204.09 258 203.96 258.2 203.88 258.45L203.88 257.45L203 257.45ZM207.56 262.42C207.92 262.62 208.33 262.72 208.81 262.72Q209.58 262.72 210.1 262.39C210.45 262.16 210.71 261.85 210.89 261.45C211.07 261.04 211.16 260.58 211.16 260.06C211.16 259.48 211.06 258.98 210.87 258.58C210.68 258.18 210.4 257.87 210.05 257.67C209.7 257.46 209.29 257.35 208.81 257.35C208.3 257.35 207.87 257.46 207.52 257.69Q207.35 257.79 207.22 257.92Q206.9 258.21 206.71 258.64C206.53 259.04 206.44 259.51 206.44 260.06C206.44 260.63 206.53 261.11 206.73 261.51C206.93 261.91 207.2 262.21 207.56 262.42ZM215.43 257.57C215.14 257.42 214.8 257.35 214.43 257.35C213.93 257.35 213.49 257.46 213.14 257.69C212.78 257.92 212.51 258.23 212.33 258.64Q212.05 259.25 212.05 260.06C212.05 260.63 212.15 261.12 212.36 261.51C212.56 261.91 212.84 262.21 213.2 262.42C213.56 262.62 213.97 262.72 214.43 262.72Q214.98 262.72 215.42 262.51C215.72 262.38 215.96 262.18 216.15 261.93C216.34 261.67 216.46 261.37 216.5 261.03L215.7 261.03C215.67 261.2 215.6 261.36 215.49 261.51C215.39 261.67 215.24 261.79 215.07 261.88C214.89 261.97 214.69 262.01 214.45 262.01C213.96 262.01 213.58 261.84 213.32 261.48C213.07 261.12 212.94 260.64 212.94 260.04C212.94 259.39 213.08 258.9 213.36 258.57Q213.54 258.37 213.76 258.25Q214.06 258.1 214.44 258.1Q214.79 258.1 215.06 258.23C215.23 258.32 215.38 258.44 215.48 258.59C215.59 258.74 215.66 258.91 215.69 259.09L216.51 259.09C216.47 258.73 216.35 258.43 216.16 258.17C215.97 257.91 215.73 257.71 215.43 257.57ZM218.58 261.14C218.48 260.87 218.42 260.58 218.42 260.25L222.13 260.25L222.13 259.91Q222.13 259.13 221.86 258.56C221.69 258.17 221.43 257.88 221.1 257.67Q220.59 257.35 219.86 257.35C219.36 257.35 218.93 257.47 218.58 257.7C218.22 257.93 217.95 258.25 217.77 258.66C217.58 259.07 217.49 259.54 217.49 260.09C217.49 260.64 217.59 261.11 217.8 261.5Q218 261.89 218.31 262.16Q218.47 262.3 218.66 262.41C219.02 262.62 219.45 262.72 219.93 262.72C220.27 262.72 220.59 262.66 220.89 262.54C221.2 262.42 221.46 262.24 221.68 262C221.89 261.76 222.03 261.46 222.1 261.11L221.22 261.11C221.16 261.4 221 261.62 220.76 261.78C220.53 261.93 220.24 262.01 219.91 262.01C219.58 262.01 219.3 261.93 219.08 261.77C218.86 261.61 218.69 261.4 218.58 261.14ZM224.19 262.56C224.5 262.67 224.83 262.72 225.19 262.72C225.61 262.72 225.97 262.66 226.26 262.54C226.56 262.41 226.79 262.23 226.94 262.01C227.1 261.78 227.18 261.5 227.18 261.19C227.18 261.06 227.16 260.93 227.12 260.79C227.09 260.65 227.02 260.52 226.93 260.39C226.84 260.26 226.71 260.15 226.56 260.04C226.4 259.94 226.21 259.86 225.97 259.79L224.93 259.54C224.65 259.47 224.43 259.38 224.28 259.28Q224.18 259.2 224.12 259.09Q224.06 258.98 224.06 258.84Q224.06 258.58 224.19 258.4Q224.26 258.3 224.37 258.23C224.58 258.1 224.85 258.03 225.18 258.03Q225.65 258.03 225.93 258.25C226.12 258.39 226.23 258.59 226.27 258.84L227.08 258.84C227.07 258.35 226.89 257.98 226.54 257.73C226.2 257.48 225.75 257.35 225.19 257.35C224.75 257.35 224.39 257.42 224.09 257.55C223.8 257.68 223.58 257.87 223.43 258.1C223.29 258.32 223.21 258.59 223.22 258.9Q223.22 259.31 223.41 259.59Q223.49 259.7 223.59 259.79C223.84 260 224.18 260.16 224.59 260.26L225.66 260.53C225.9 260.58 226.07 260.66 226.18 260.78C226.29 260.89 226.35 261.04 226.35 261.24C226.35 261.51 226.24 261.71 226.03 261.84C225.81 261.97 225.53 262.03 225.19 262.03C224.97 262.03 224.77 262 224.59 261.93C224.4 261.86 224.25 261.76 224.13 261.63C224.01 261.49 223.92 261.32 223.88 261.12L223.04 261.12C223.09 261.49 223.22 261.79 223.42 262.03C223.63 262.27 223.88 262.44 224.19 262.56ZM229.22 262.56C229.53 262.67 229.86 262.72 230.22 262.72C230.64 262.72 231 262.66 231.29 262.54C231.59 262.41 231.82 262.23 231.97 262.01C232.13 261.78 232.21 261.5 232.21 261.19C232.21 261.06 232.19 260.93 232.15 260.79C232.12 260.65 232.05 260.52 231.96 260.39C231.87 260.26 231.74 260.15 231.59 260.04C231.43 259.94 231.24 259.86 231 259.79L229.96 259.54C229.68 259.47 229.46 259.38 229.31 259.28Q229.21 259.2 229.15 259.09Q229.09 258.98 229.09 258.84Q229.09 258.58 229.22 258.4Q229.29 258.3 229.4 258.23C229.61 258.1 229.88 258.03 230.21 258.03Q230.68 258.03 230.96 258.25C231.15 258.39 231.26 258.59 231.3 258.84L232.11 258.84C232.1 258.35 231.92 257.98 231.57 257.73C231.23 257.48 230.78 257.35 230.22 257.35C229.78 257.35 229.42 257.42 229.12 257.55C228.83 257.68 228.61 257.87 228.46 258.1C228.32 258.32 228.24 258.59 228.25 258.9Q228.25 259.31 228.44 259.59Q228.51 259.7 228.62 259.79C228.87 260 229.21 260.16 229.62 260.26L230.69 260.53C230.93 260.58 231.1 260.66 231.21 260.78C231.32 260.89 231.38 261.04 231.38 261.24C231.38 261.51 231.27 261.71 231.06 261.84C230.84 261.97 230.56 262.03 230.22 262.03C230 262.03 229.8 262 229.62 261.93C229.43 261.86 229.28 261.76 229.16 261.63C229.04 261.49 228.95 261.32 228.91 261.12L228.07 261.12C228.12 261.49 228.25 261.79 228.45 262.03C228.66 262.27 228.91 262.44 229.22 262.56ZM234.32 261.14C234.22 260.87 234.16 260.58 234.16 260.25L237.87 260.25L237.87 259.91Q237.87 259.13 237.6 258.56C237.43 258.17 237.18 257.88 236.84 257.67Q236.33 257.35 235.6 257.35C235.1 257.35 234.68 257.47 234.32 257.7C233.97 257.93 233.7 258.25 233.51 258.66C233.32 259.07 233.23 259.54 233.23 260.09C233.23 260.64 233.33 261.11 233.54 261.5Q233.74 261.89 234.05 262.16Q234.21 262.3 234.4 262.41C234.77 262.62 235.19 262.72 235.67 262.72C236.01 262.72 236.33 262.66 236.63 262.54C236.94 262.42 237.2 262.24 237.42 262C237.64 261.76 237.78 261.46 237.84 261.11L236.96 261.11C236.9 261.4 236.74 261.62 236.5 261.78C236.27 261.93 235.98 262.01 235.65 262.01C235.32 262.01 235.04 261.93 234.82 261.77C234.6 261.61 234.43 261.4 234.32 261.14ZM262.1 261.14C261.99 260.87 261.94 260.58 261.94 260.25L265.64 260.25L265.64 259.91Q265.64 259.13 265.38 258.56C265.2 258.17 264.95 257.88 264.61 257.67Q264.11 257.35 263.38 257.35C262.88 257.35 262.45 257.47 262.09 257.7C261.74 257.93 261.47 258.25 261.28 258.66C261.1 259.07 261 259.54 261 260.09C261 260.64 261.11 261.11 261.31 261.5Q261.52 261.89 261.83 262.16Q261.99 262.3 262.17 262.41C262.54 262.62 262.96 262.72 263.45 262.72C263.78 262.72 264.1 262.66 264.41 262.54C264.71 262.42 264.98 262.24 265.19 262C265.41 261.76 265.55 261.46 265.61 261.11L264.74 261.11C264.67 261.4 264.52 261.62 264.28 261.78C264.04 261.93 263.76 262.01 263.43 262.01C263.09 262.01 262.82 261.93 262.59 261.77C262.37 261.61 262.21 261.4 262.1 261.14ZM141.3 257.45L141.3 262.62L142.22 262.62L142.22 259.17C142.22 258.94 142.28 258.75 142.41 258.6C142.53 258.44 142.7 258.33 142.9 258.26C143.11 258.18 143.32 258.14 143.56 258.14C143.89 258.14 144.17 258.24 144.38 258.44Q144.39 258.45 144.41 258.47Q144.7 258.76 144.7 259.33L144.7 262.62L145.62 262.62L145.62 259.24C145.62 258.81 145.54 258.45 145.37 258.18C145.21 257.9 144.99 257.7 144.71 257.57C144.44 257.44 144.14 257.38 143.81 257.38C143.53 257.38 143.29 257.41 143.08 257.49C142.87 257.57 142.69 257.67 142.54 257.79C142.39 257.92 142.28 258.06 142.19 258.2L142.19 257.45L141.3 257.45ZM188.98 257.45L188.98 262.62L189.9 262.62L189.9 259.17C189.9 258.94 189.97 258.75 190.09 258.6Q190.13 258.55 190.18 258.5Q190.35 258.34 190.59 258.26C190.79 258.18 191.01 258.14 191.24 258.14C191.58 258.14 191.85 258.24 192.06 258.44Q192.08 258.45 192.1 258.47Q192.38 258.76 192.38 259.33L192.38 262.62L193.31 262.62L193.31 259.24C193.31 258.81 193.22 258.45 193.06 258.18C192.89 257.9 192.67 257.7 192.4 257.57C192.12 257.44 191.82 257.38 191.5 257.38C191.22 257.38 190.98 257.41 190.76 257.49C190.55 257.57 190.37 257.67 190.22 257.79C190.08 257.92 189.96 258.06 189.88 258.2L189.88 257.45L188.98 257.45ZM121.56 264.21C121.68 264.25 121.89 264.27 122.19 264.27C122.43 264.27 122.64 264.23 122.84 264.16C123.05 264.09 123.23 263.96 123.39 263.78C123.56 263.59 123.71 263.34 123.84 263.01L126.02 257.45L125.12 257.45L123.6 261.44L122.08 257.45L121.14 257.45L123.16 262.5L122.98 262.99C122.96 263.05 122.92 263.12 122.88 263.19C122.84 263.26 122.78 263.32 122.7 263.38C122.63 263.43 122.53 263.48 122.4 263.51C122.27 263.54 122.11 263.56 121.92 263.55L121.39 263.54L121.39 264.14L121.56 264.21ZM105.93 259.63L103.12 259.63C103.12 259.37 103.17 259.12 103.27 258.88C103.38 258.64 103.54 258.44 103.75 258.29Q103.76 258.28 103.77 258.27Q104.08 258.05 104.55 258.05C104.86 258.05 105.12 258.12 105.32 258.26C105.53 258.4 105.68 258.59 105.78 258.82C105.88 259.06 105.93 259.33 105.93 259.63ZM139.14 259.63L136.33 259.63C136.32 259.37 136.37 259.12 136.48 258.88Q136.57 258.67 136.72 258.5Q136.82 258.38 136.95 258.29Q136.96 258.28 136.97 258.27Q137.29 258.05 137.76 258.05C138.07 258.05 138.32 258.12 138.53 258.26C138.73 258.4 138.89 258.59 138.99 258.82C139.09 259.06 139.14 259.33 139.14 259.63ZM181.19 259.63L178.38 259.63C178.38 259.37 178.43 259.12 178.53 258.88Q178.62 258.67 178.77 258.5Q178.87 258.38 179 258.29Q179.01 258.28 179.02 258.27Q179.34 258.05 179.81 258.05C180.12 258.05 180.38 258.12 180.58 258.26C180.79 258.4 180.94 258.59 181.04 258.82C181.14 259.06 181.19 259.33 181.19 259.63ZM186.82 259.63L184.01 259.63C184.01 259.37 184.06 259.12 184.16 258.88Q184.26 258.67 184.4 258.5Q184.51 258.38 184.64 258.29Q184.65 258.28 184.66 258.27Q184.97 258.05 185.44 258.05C185.75 258.05 186.01 258.12 186.21 258.26C186.42 258.4 186.57 258.59 186.67 258.82C186.77 259.06 186.82 259.33 186.82 259.63ZM221.24 259.63L218.43 259.63C218.42 259.37 218.47 259.12 218.58 258.88C218.68 258.64 218.84 258.44 219.05 258.29C219.27 258.13 219.53 258.05 219.86 258.05Q220.32 258.05 220.63 258.26C220.83 258.4 220.99 258.59 221.09 258.82C221.19 259.06 221.24 259.33 221.24 259.63ZM236.98 259.63L234.17 259.63C234.17 259.37 234.22 259.12 234.32 258.88C234.43 258.64 234.58 258.44 234.79 258.29C235.01 258.13 235.28 258.05 235.6 258.05Q236.06 258.05 236.37 258.26C236.58 258.4 236.73 258.59 236.83 258.82C236.93 259.06 236.98 259.33 236.98 259.63ZM264.75 259.63L261.94 259.63C261.94 259.37 261.99 259.12 262.09 258.88C262.2 258.64 262.36 258.44 262.57 258.29C262.78 258.13 263.05 258.05 263.37 258.05Q263.84 258.05 264.14 258.26C264.35 258.4 264.5 258.59 264.6 258.82C264.7 259.06 264.75 259.33 264.75 259.63ZM113.76 261.51C113.49 261.84 113.14 262 112.71 262Q112.34 262 112.07 261.84Q111.98 261.79 111.91 261.73C111.69 261.55 111.53 261.31 111.42 261.01C111.31 260.7 111.25 260.37 111.25 260C111.25 259.42 111.37 258.96 111.62 258.6C111.87 258.25 112.23 258.07 112.71 258.07C113.18 258.07 113.54 258.24 113.79 258.59C114.04 258.94 114.16 259.41 114.16 260C114.16 260.68 114.03 261.19 113.76 261.51ZM174.74 261.88Q174.48 262.01 174.16 262.01Q173.51 262.01 173.16 261.69Q173.09 261.62 173.03 261.54C172.81 261.22 172.7 260.69 172.7 259.97C172.7 259.57 172.75 259.22 172.85 258.94C172.95 258.66 173.1 258.44 173.31 258.29C173.52 258.15 173.79 258.07 174.14 258.07Q174.6 258.07 174.91 258.29Q175.08 258.4 175.21 258.57C175.45 258.9 175.58 259.37 175.58 259.97C175.58 260.68 175.44 261.2 175.18 261.53Q174.99 261.76 174.74 261.88ZM200.48 261.51C200.21 261.84 199.87 262 199.44 262Q199.07 262 198.79 261.84Q198.71 261.79 198.63 261.73C198.42 261.55 198.25 261.31 198.14 261.01C198.03 260.7 197.98 260.37 197.98 260C197.98 259.42 198.1 258.96 198.35 258.6C198.6 258.25 198.96 258.07 199.44 258.07Q199.88 258.07 200.19 258.27Q200.38 258.4 200.52 258.59C200.77 258.94 200.89 259.41 200.89 260C200.89 260.68 200.75 261.19 200.48 261.51ZM242.29 261.54C242.07 261.85 241.69 262.01 241.17 262.01Q240.77 262.01 240.47 261.83Q240.26 261.7 240.11 261.48C239.87 261.12 239.75 260.62 239.75 259.97Q239.75 258.98 240.15 258.53C240.42 258.22 240.76 258.07 241.19 258.07C241.53 258.07 241.81 258.15 242.01 258.29C242.22 258.44 242.38 258.66 242.47 258.94C242.57 259.22 242.63 259.57 242.63 259.97C242.63 260.69 242.52 261.22 242.29 261.54ZM209.6 261.76C209.38 261.91 209.12 261.99 208.81 261.99C208.47 261.99 208.19 261.9 207.98 261.73C207.76 261.56 207.61 261.32 207.51 261.03C207.41 260.73 207.36 260.4 207.36 260.04C207.36 259.63 207.41 259.27 207.52 258.98Q207.69 258.55 208 258.32Q208.01 258.32 208.02 258.31C208.23 258.15 208.5 258.07 208.81 258.07C209.15 258.07 209.43 258.16 209.64 258.34C209.85 258.51 210 258.74 210.1 259.04C210.2 259.33 210.25 259.67 210.25 260.04Q210.25 260.64 210.08 261.08C209.97 261.37 209.81 261.6 209.6 261.76ZM118.42 261.96C118.25 262.02 118.08 262.06 117.91 262.06C117.59 262.06 117.33 261.97 117.12 261.81Q117.02 261.73 116.95 261.62Q116.82 261.42 116.82 261.13C116.82 260.88 116.89 260.67 117.02 260.51C117.15 260.36 117.35 260.24 117.61 260.17Q118.01 260.06 118.6 260.05L119.37 260.04L119.37 260.92C119.37 261.06 119.33 261.2 119.24 261.34C119.16 261.47 119.04 261.6 118.9 261.71C118.76 261.81 118.6 261.9 118.42 261.96ZM161.05 261.96C160.88 262.02 160.71 262.06 160.54 262.06Q160.09 262.06 159.8 261.85Q159.77 261.83 159.75 261.81C159.55 261.65 159.45 261.42 159.45 261.13C159.45 260.88 159.52 260.67 159.65 260.51Q159.85 260.28 160.24 260.17C160.51 260.1 160.84 260.06 161.23 260.05L162 260.04L162 260.92C162 261.06 161.95 261.2 161.87 261.34C161.78 261.47 161.67 261.6 161.53 261.71C161.38 261.81 161.23 261.9 161.05 261.96ZM244.87 261.44L244.87 262.62L245.97 262.62L245.97 261.44L244.87 261.44ZM110.28 276.57C110.46 276.65 110.68 276.69 110.96 276.69C111.03 276.69 111.1 276.68 111.19 276.66Q111.31 276.64 111.43 276.6L111.43 276.01L111.15 276C110.96 275.99 110.82 275.92 110.72 275.79C110.62 275.66 110.57 275.46 110.57 275.2L110.57 269.19L109.66 269.19L109.66 275.29C109.66 275.47 109.67 275.65 109.7 275.82C109.74 275.98 109.8 276.13 109.89 276.26C109.98 276.39 110.11 276.49 110.28 276.57ZM152.49 276.03C152.88 276.49 153.41 276.72 154.08 276.72C154.38 276.72 154.64 276.68 154.85 276.6C155.06 276.52 155.23 276.42 155.36 276.29C155.49 276.17 155.6 276.04 155.67 275.91C155.74 275.78 155.8 275.66 155.83 275.56L155.93 276.62L156.64 276.62L156.64 269.19L155.71 269.19L155.71 272.27C155.66 272.18 155.6 272.09 155.5 271.99C155.42 271.88 155.31 271.78 155.17 271.69C155.03 271.59 154.86 271.51 154.67 271.45C154.48 271.38 154.26 271.35 154.01 271.35Q153.31 271.35 152.85 271.68L152.84 271.68C152.53 271.9 152.29 272.21 152.13 272.61C151.97 273.01 151.89 273.48 151.89 274.01Q151.89 275.34 152.49 276.03ZM164.07 276.03C164.46 276.49 164.99 276.72 165.66 276.72C165.97 276.72 166.22 276.68 166.43 276.6C166.64 276.52 166.81 276.42 166.94 276.29C167.08 276.17 167.18 276.04 167.25 275.91C167.33 275.78 167.38 275.66 167.41 275.56L167.51 276.62L168.22 276.62L168.22 269.19L167.29 269.19L167.29 272.27C167.24 272.18 167.18 272.09 167.09 271.99C167 271.88 166.89 271.78 166.75 271.69C166.61 271.59 166.44 271.51 166.25 271.45C166.06 271.38 165.84 271.35 165.59 271.35Q164.9 271.35 164.43 271.68L164.42 271.68C164.11 271.9 163.87 272.21 163.71 272.61C163.56 273.01 163.48 273.48 163.48 274.01C163.48 274.9 163.67 275.57 164.07 276.03ZM190.42 276.03C190.81 276.49 191.34 276.72 192.01 276.72C192.31 276.72 192.57 276.68 192.78 276.6C192.99 276.52 193.16 276.42 193.29 276.29C193.42 276.17 193.53 276.04 193.6 275.91C193.67 275.78 193.73 275.66 193.76 275.56L193.86 276.62L194.57 276.62L194.57 269.19L193.64 269.19L193.64 272.27C193.59 272.18 193.53 272.09 193.44 271.99C193.35 271.88 193.24 271.78 193.1 271.69C192.96 271.59 192.79 271.51 192.6 271.45C192.41 271.38 192.19 271.35 191.94 271.35Q191.24 271.35 190.77 271.68L190.77 271.68C190.46 271.9 190.22 272.21 190.06 272.61C189.9 273.01 189.83 273.48 189.83 274.01C189.83 274.9 190.02 275.57 190.42 276.03ZM201.32 272.13L201.32 271.45L200.05 271.45L200.05 270.73C200.05 270.5 200.09 270.33 200.16 270.22C200.24 270.1 200.38 270.04 200.59 270.04L201.37 270.04L201.36 269.39L200.39 269.39C199.97 269.39 199.66 269.5 199.45 269.72C199.24 269.93 199.13 270.24 199.13 270.65L199.13 271.45L198.04 271.45L198.04 272.13L199.13 272.13L199.13 276.62L200.06 276.62L200.06 272.13L201.32 272.13ZM92.29 272.13L93.46 272.13L93.46 271.45L92.29 271.45L92.29 269.95L91.61 269.95L91.39 271.45L90.52 271.45L90.52 272.13L91.36 272.13L91.36 275.37Q91.36 275.79 91.48 276.07C91.56 276.26 91.69 276.4 91.89 276.5C92.09 276.6 92.36 276.65 92.72 276.65C92.91 276.65 93.07 276.64 93.2 276.62C93.33 276.6 93.42 276.58 93.49 276.56L93.49 275.94L92.92 275.94Q92.68 275.94 92.54 275.91Q92.47 275.89 92.42 275.85Q92.37 275.81 92.35 275.75C92.31 275.66 92.29 275.52 92.29 275.34L92.29 272.13ZM101.56 272.13L102.72 272.13L102.72 271.45L101.56 271.45L101.56 269.95L100.88 269.95L100.65 271.45L99.79 271.45L99.79 272.13L100.63 272.13L100.63 275.37Q100.63 275.79 100.74 276.07C100.82 276.26 100.96 276.4 101.16 276.5C101.35 276.6 101.63 276.65 101.99 276.65C102.18 276.65 102.34 276.64 102.46 276.62C102.59 276.6 102.69 276.58 102.75 276.56L102.75 275.94L102.19 275.94C102.03 275.94 101.9 275.93 101.81 275.91C101.72 275.88 101.65 275.83 101.61 275.75Q101.56 275.62 101.56 275.34L101.56 272.13ZM147.54 272.13L148.71 272.13L148.71 271.45L147.54 271.45L147.54 269.95L146.86 269.95L146.64 271.45L145.77 271.45L145.77 272.13L146.61 272.13L146.61 275.37C146.61 275.65 146.65 275.88 146.73 276.07C146.81 276.26 146.95 276.4 147.14 276.5C147.34 276.6 147.62 276.65 147.97 276.65C148.16 276.65 148.32 276.64 148.45 276.62C148.58 276.6 148.68 276.58 148.74 276.56L148.74 275.94L148.17 275.94Q147.93 275.94 147.79 275.91C147.7 275.88 147.64 275.83 147.6 275.75Q147.54 275.62 147.54 275.34L147.54 272.13ZM182.15 272.13L183.32 272.13L183.32 271.45L182.15 271.45L182.15 269.95L181.47 269.95L181.25 271.45L180.38 271.45L180.38 272.13L181.22 272.13L181.22 275.37C181.22 275.65 181.26 275.88 181.34 276.07C181.42 276.26 181.56 276.4 181.75 276.5C181.95 276.6 182.23 276.65 182.58 276.65Q182.87 276.65 183.06 276.62C183.19 276.6 183.29 276.58 183.35 276.56L183.35 275.94L182.78 275.94C182.62 275.94 182.5 275.93 182.4 275.91C182.31 275.88 182.25 275.83 182.21 275.75Q182.15 275.62 182.15 275.34L182.15 272.13ZM95.45 276.42C95.81 276.62 96.23 276.72 96.7 276.72Q97.47 276.72 97.99 276.39C98.34 276.16 98.61 275.85 98.78 275.45C98.96 275.04 99.05 274.58 99.05 274.06Q99.05 273.19 98.76 272.58C98.57 272.18 98.3 271.87 97.94 271.67C97.59 271.46 97.18 271.35 96.7 271.35C96.2 271.35 95.76 271.46 95.41 271.69C95.05 271.91 94.79 272.23 94.6 272.64Q94.33 273.25 94.33 274.06C94.33 274.63 94.43 275.11 94.62 275.51C94.82 275.91 95.1 276.21 95.45 276.42ZM104.56 276.54C104.81 276.66 105.11 276.72 105.44 276.72C105.81 276.72 106.15 276.64 106.46 276.49C106.77 276.33 107.02 276.05 107.22 275.65L107.29 276.62L108.08 276.62L108.08 273.01C108.08 272.65 108 272.35 107.85 272.1C107.71 271.85 107.48 271.67 107.18 271.54C106.89 271.41 106.51 271.35 106.06 271.35C105.65 271.35 105.28 271.41 104.98 271.53C104.67 271.65 104.44 271.83 104.27 272.06C104.1 272.29 104 272.57 103.98 272.91L104.8 272.91C104.86 272.6 105.01 272.38 105.23 272.24C105.46 272.1 105.72 272.03 106.02 272.03C106.42 272.03 106.71 272.12 106.9 272.31C107.09 272.49 107.19 272.74 107.19 273.06L107.19 273.47L106.26 273.49C105.38 273.51 104.74 273.66 104.34 273.94C103.94 274.22 103.74 274.65 103.74 275.22C103.74 275.54 103.81 275.81 103.95 276.03C104.1 276.25 104.3 276.43 104.56 276.54ZM115.49 276.54C115.74 276.66 116.04 276.72 116.37 276.72C116.74 276.72 117.08 276.64 117.39 276.49C117.7 276.33 117.95 276.05 118.15 275.65L118.22 276.62L119.01 276.62L119.01 273.01C119.01 272.65 118.93 272.35 118.78 272.1C118.63 271.85 118.41 271.67 118.11 271.54C117.81 271.41 117.44 271.35 116.99 271.35C116.57 271.35 116.21 271.41 115.91 271.53C115.6 271.65 115.37 271.83 115.2 272.06C115.03 272.29 114.93 272.57 114.91 272.91L115.73 272.91Q115.8 272.54 116.03 272.34Q116.09 272.28 116.16 272.24C116.39 272.1 116.65 272.03 116.95 272.03C117.35 272.03 117.64 272.12 117.83 272.31C118.02 272.49 118.12 272.74 118.12 273.06L118.12 273.47L117.19 273.49C116.31 273.51 115.67 273.66 115.27 273.94C114.87 274.22 114.67 274.65 114.67 275.22C114.67 275.54 114.74 275.81 114.88 276.03C115.03 276.25 115.23 276.43 115.49 276.54ZM120.58 271.45L120.58 276.62L121.5 276.62L121.5 273.17C121.5 272.92 121.56 272.73 121.68 272.57C121.81 272.42 121.96 272.31 122.13 272.24Q122.4 272.14 122.67 272.14C122.83 272.14 122.99 272.17 123.15 272.24C123.31 272.31 123.45 272.41 123.55 272.55Q123.58 272.59 123.61 272.63Q123.72 272.81 123.72 273.06L123.72 276.62L124.64 276.62L124.64 273.17C124.64 272.91 124.7 272.7 124.83 272.55C124.96 272.4 125.11 272.29 125.29 272.23C125.47 272.17 125.64 272.14 125.8 272.14C125.98 272.14 126.15 272.17 126.31 272.24C126.48 272.31 126.61 272.43 126.71 272.6C126.81 272.78 126.86 273.02 126.86 273.33L126.86 276.62L127.79 276.62L127.79 273.24C127.79 272.86 127.74 272.54 127.63 272.3C127.52 272.05 127.38 271.86 127.21 271.73C127.05 271.59 126.87 271.49 126.67 271.44C126.47 271.38 126.28 271.35 126.1 271.35C125.76 271.35 125.45 271.43 125.18 271.59C124.91 271.74 124.69 271.94 124.53 272.2C124.44 272.01 124.31 271.86 124.15 271.73C123.99 271.6 123.81 271.51 123.61 271.45C123.42 271.38 123.23 271.35 123.04 271.35C122.64 271.35 122.31 271.44 122.06 271.6C121.81 271.78 121.62 271.97 121.47 272.2L121.47 271.45L120.58 271.45ZM130.04 276.42C130.4 276.62 130.82 276.72 131.29 276.72Q132.06 276.72 132.58 276.39C132.93 276.16 133.2 275.85 133.37 275.45C133.55 275.04 133.64 274.58 133.64 274.06C133.64 273.48 133.55 272.98 133.35 272.58C133.16 272.18 132.89 271.87 132.53 271.67C132.18 271.46 131.77 271.35 131.29 271.35C130.78 271.35 130.35 271.46 130 271.69C129.64 271.91 129.38 272.23 129.19 272.64Q128.92 273.25 128.92 274.06C128.92 274.63 129.02 275.11 129.21 275.51C129.41 275.91 129.69 276.21 130.04 276.42ZM158.98 275.14C158.88 274.87 158.82 274.58 158.82 274.25L162.53 274.25L162.53 273.91C162.53 273.39 162.44 272.94 162.26 272.56C162.09 272.17 161.83 271.88 161.5 271.67C161.16 271.46 160.75 271.35 160.26 271.35C159.76 271.35 159.33 271.47 158.98 271.7C158.62 271.93 158.35 272.25 158.17 272.66C157.98 273.07 157.89 273.54 157.89 274.09C157.89 274.64 157.99 275.11 158.2 275.5C158.4 275.89 158.69 276.2 159.06 276.41C159.42 276.62 159.85 276.72 160.33 276.72Q160.63 276.72 160.91 276.66Q161.1 276.61 161.29 276.54C161.6 276.42 161.86 276.24 162.08 276Q162.14 275.93 162.19 275.85Q162.42 275.53 162.5 275.11L161.62 275.11C161.56 275.4 161.4 275.62 161.16 275.78C160.93 275.93 160.64 276.01 160.31 276.01C159.98 276.01 159.7 275.93 159.48 275.77C159.26 275.61 159.09 275.4 158.98 275.14ZM178.53 271.57C178.23 271.42 177.9 271.35 177.53 271.35C177.02 271.35 176.59 271.46 176.23 271.69C175.88 271.92 175.61 272.23 175.42 272.64C175.24 273.04 175.15 273.51 175.15 274.06C175.15 274.63 175.25 275.12 175.45 275.51C175.66 275.91 175.94 276.21 176.29 276.42C176.65 276.62 177.06 276.72 177.53 276.72C177.89 276.72 178.22 276.65 178.52 276.51C178.81 276.38 179.06 276.18 179.25 275.93C179.44 275.67 179.55 275.37 179.6 275.03L178.79 275.03C178.76 275.2 178.69 275.36 178.59 275.51C178.48 275.67 178.34 275.79 178.16 275.88C177.99 275.97 177.78 276.01 177.55 276.01C177.05 276.01 176.67 275.84 176.42 275.48C176.16 275.12 176.04 274.64 176.04 274.04C176.04 273.39 176.18 272.9 176.45 272.57Q176.63 272.37 176.86 272.25Q177.16 272.1 177.53 272.1Q177.89 272.1 178.15 272.23C178.33 272.32 178.47 272.44 178.58 272.59C178.69 272.74 178.76 272.91 178.79 273.09L179.61 273.09C179.56 272.73 179.44 272.43 179.25 272.17C179.07 271.91 178.82 271.71 178.53 271.57ZM185.33 275.14C185.22 274.87 185.17 274.58 185.17 274.25L188.88 274.25L188.88 273.91C188.88 273.39 188.79 272.94 188.61 272.56C188.44 272.17 188.18 271.88 187.85 271.67C187.51 271.46 187.1 271.35 186.61 271.35C186.11 271.35 185.68 271.47 185.33 271.7C184.97 271.93 184.7 272.25 184.52 272.66C184.33 273.07 184.24 273.54 184.24 274.09C184.24 274.64 184.34 275.11 184.55 275.5C184.75 275.89 185.04 276.2 185.41 276.41C185.77 276.62 186.2 276.72 186.68 276.72Q186.97 276.72 187.25 276.66Q187.45 276.61 187.64 276.54C187.95 276.42 188.21 276.24 188.43 276Q188.49 275.93 188.54 275.85Q188.77 275.53 188.85 275.11L187.97 275.11C187.9 275.4 187.75 275.62 187.51 275.78C187.27 275.93 186.99 276.01 186.66 276.01C186.33 276.01 186.05 275.93 185.83 275.77C185.61 275.61 185.44 275.4 185.33 275.14ZM202.46 271.45L202.46 276.62L203.38 276.62L203.38 273.41C203.38 273.19 203.42 273.01 203.49 272.85C203.57 272.7 203.68 272.58 203.82 272.49C203.96 272.39 204.11 272.33 204.29 272.29C204.47 272.25 204.67 272.24 204.87 272.25C204.93 272.25 204.99 272.26 205.07 272.26C205.15 272.27 205.21 272.29 205.26 272.31L205.26 271.42C205.22 271.39 205.17 271.38 205.09 271.37C205.02 271.35 204.95 271.35 204.87 271.35C204.65 271.35 204.44 271.39 204.24 271.47C204.04 271.55 203.86 271.67 203.7 271.84C203.55 272 203.43 272.2 203.34 272.45L203.34 271.45L202.46 271.45ZM207.02 276.42C207.38 276.62 207.8 276.72 208.27 276.72Q209.04 276.72 209.56 276.39C209.91 276.16 210.18 275.85 210.35 275.45C210.53 275.04 210.62 274.58 210.62 274.06C210.62 273.48 210.53 272.98 210.33 272.58C210.14 272.18 209.87 271.87 209.51 271.67C209.16 271.46 208.75 271.35 208.27 271.35C207.77 271.35 207.34 271.46 206.98 271.69C206.63 271.91 206.36 272.23 206.17 272.64Q205.9 273.25 205.9 274.06C205.9 274.63 206 275.11 206.19 275.51C206.39 275.91 206.67 276.21 207.02 276.42ZM211.83 271.45L211.83 276.62L212.75 276.62L212.75 273.17C212.75 272.92 212.81 272.73 212.93 272.57C213.06 272.42 213.21 272.31 213.38 272.24C213.56 272.17 213.74 272.14 213.92 272.14C214.08 272.14 214.24 272.17 214.4 272.24C214.56 272.31 214.7 272.41 214.8 272.55Q214.83 272.59 214.86 272.63Q214.97 272.81 214.97 273.06L214.97 276.62L215.89 276.62L215.89 273.17C215.89 272.91 215.95 272.7 216.08 272.55C216.21 272.4 216.36 272.29 216.54 272.23C216.72 272.17 216.89 272.14 217.05 272.14C217.23 272.14 217.4 272.17 217.56 272.24C217.73 272.31 217.86 272.43 217.96 272.6C218.06 272.78 218.11 273.02 218.11 273.33L218.11 276.62L219.04 276.62L219.04 273.24C219.04 272.86 218.99 272.54 218.88 272.3C218.77 272.05 218.63 271.86 218.46 271.73C218.3 271.59 218.12 271.49 217.92 271.44C217.72 271.38 217.53 271.35 217.35 271.35Q216.93 271.35 216.58 271.51Q216.51 271.54 216.43 271.59C216.16 271.74 215.94 271.94 215.78 272.2C215.69 272.01 215.56 271.86 215.4 271.73C215.24 271.6 215.06 271.51 214.86 271.45C214.67 271.38 214.48 271.35 214.29 271.35C213.89 271.35 213.56 271.44 213.31 271.6C213.06 271.78 212.87 271.97 212.72 272.2L212.72 271.45L211.83 271.45ZM228.67 276.42C229.03 276.62 229.45 276.72 229.92 276.72C230.44 276.72 230.87 276.61 231.21 276.39C231.56 276.16 231.83 275.85 232 275.45C232.18 275.04 232.27 274.58 232.27 274.06Q232.27 273.19 231.98 272.58C231.79 272.18 231.52 271.87 231.16 271.67C230.81 271.46 230.4 271.35 229.92 271.35C229.42 271.35 228.99 271.46 228.63 271.69C228.28 271.91 228.01 272.23 227.82 272.64C227.64 273.04 227.55 273.51 227.55 274.06C227.55 274.63 227.65 275.11 227.84 275.51C228.04 275.91 228.32 276.21 228.67 276.42ZM239.19 271.45L239.19 276.62L240.11 276.62L240.11 273.41C240.11 273.19 240.15 273.01 240.22 272.85C240.3 272.7 240.41 272.58 240.55 272.49C240.68 272.39 240.84 272.33 241.02 272.29C241.2 272.25 241.4 272.24 241.6 272.25Q241.68 272.25 241.8 272.26Q241.92 272.28 241.99 272.31L241.99 271.42C241.95 271.39 241.9 271.38 241.82 271.37C241.75 271.35 241.67 271.35 241.6 271.35C241.38 271.35 241.17 271.39 240.97 271.47C240.77 271.55 240.59 271.67 240.43 271.84C240.28 272 240.15 272.2 240.07 272.45L240.07 271.45L239.19 271.45ZM140.56 271.45L140.56 276.62L141.48 276.62L141.48 273.17C141.48 272.94 141.54 272.75 141.67 272.6C141.79 272.44 141.96 272.33 142.16 272.26C142.36 272.18 142.58 272.14 142.82 272.14C143.15 272.14 143.42 272.24 143.64 272.44C143.85 272.63 143.96 272.93 143.96 273.33L143.96 276.62L144.88 276.62L144.88 273.24C144.88 272.81 144.8 272.45 144.63 272.18C144.47 271.9 144.25 271.7 143.97 271.57C143.7 271.44 143.4 271.38 143.07 271.38C142.79 271.38 142.55 271.41 142.34 271.49C142.13 271.57 141.95 271.67 141.8 271.79C141.65 271.92 141.53 272.06 141.45 272.2L141.45 271.45L140.56 271.45ZM135.9 276.6C136.14 276.68 136.39 276.72 136.66 276.72C136.91 276.72 137.13 276.69 137.34 276.62C137.56 276.54 137.74 276.42 137.89 276.26C138.04 276.1 138.15 275.89 138.21 275.63L138.31 276.62L139.04 276.62L139.04 271.45L138.12 271.45L138.12 274.82C138.12 275.21 138.01 275.51 137.77 275.71Q137.75 275.73 137.73 275.74Q137.39 276 136.86 276C136.44 276 136.12 275.9 135.91 275.69C135.71 275.48 135.6 275.2 135.6 274.87L135.6 271.45L134.68 271.45L134.68 274.96C134.68 275.25 134.73 275.51 134.83 275.73C134.94 275.94 135.09 276.12 135.27 276.27C135.45 276.42 135.66 276.53 135.9 276.6ZM170.88 276.6C171.12 276.68 171.37 276.72 171.64 276.72C171.89 276.72 172.11 276.69 172.32 276.62C172.54 276.54 172.72 276.42 172.87 276.26C173.02 276.1 173.13 275.89 173.19 275.63L173.29 276.62L174.02 276.62L174.02 271.45L173.1 271.45L173.1 274.82C173.1 275.21 172.99 275.51 172.75 275.71Q172.73 275.73 172.71 275.74Q172.37 276 171.84 276C171.42 276 171.1 275.9 170.89 275.69C170.69 275.48 170.58 275.2 170.58 274.87L170.58 271.45L169.66 271.45L169.66 274.96C169.66 275.25 169.71 275.51 169.81 275.73C169.92 275.94 170.07 276.12 170.25 276.27C170.43 276.42 170.64 276.53 170.88 276.6ZM222.61 278.21C222.72 278.25 222.93 278.27 223.23 278.27C223.47 278.27 223.69 278.23 223.89 278.16C224.09 278.09 224.28 277.96 224.44 277.78C224.61 277.59 224.76 277.34 224.89 277.01L227.07 271.45L226.16 271.45L224.65 275.44L223.12 271.45L222.19 271.45L224.21 276.5L224.03 276.99C224 277.05 223.97 277.12 223.92 277.19C223.88 277.26 223.83 277.32 223.75 277.38C223.67 277.43 223.57 277.48 223.44 277.51C223.32 277.54 223.16 277.56 222.96 277.55L222.44 277.54L222.44 278.14L222.61 278.21ZM234.53 276.6C234.77 276.68 235.03 276.72 235.3 276.72C235.54 276.72 235.77 276.69 235.98 276.62C236.19 276.54 236.37 276.42 236.52 276.26C236.68 276.1 236.78 275.89 236.85 275.63L236.94 276.62L237.68 276.62L237.68 271.45L236.76 271.45L236.76 274.82C236.76 275.21 236.64 275.51 236.41 275.71C236.18 275.9 235.87 276 235.49 276Q234.86 276 234.55 275.69C234.34 275.48 234.24 275.2 234.24 274.87L234.24 271.45L233.31 271.45L233.31 274.96C233.31 275.25 233.36 275.51 233.47 275.73C233.57 275.94 233.72 276.12 233.9 276.27C234.09 276.42 234.3 276.53 234.53 276.6ZM161.64 273.63L158.83 273.63C158.82 273.37 158.87 273.12 158.98 272.88C159.08 272.64 159.24 272.44 159.45 272.29C159.67 272.13 159.93 272.05 160.26 272.05C160.57 272.05 160.82 272.12 161.03 272.26C161.23 272.4 161.39 272.59 161.49 272.82C161.59 273.06 161.64 273.33 161.64 273.63ZM187.99 273.63L185.18 273.63C185.17 273.37 185.22 273.12 185.33 272.88C185.43 272.64 185.59 272.44 185.8 272.29C186.01 272.13 186.28 272.05 186.61 272.05C186.92 272.05 187.17 272.12 187.38 272.26C187.58 272.4 187.74 272.59 187.84 272.82C187.94 273.06 187.99 273.33 187.99 273.63ZM155.37 275.54C155.14 275.85 154.77 276.01 154.25 276.01Q153.84 276.01 153.55 275.83Q153.34 275.7 153.19 275.48C152.95 275.12 152.83 274.62 152.83 273.97C152.83 273.31 152.96 272.83 153.23 272.53C153.49 272.22 153.84 272.07 154.27 272.07C154.61 272.07 154.88 272.15 155.09 272.29C155.3 272.44 155.45 272.66 155.55 272.94C155.65 273.22 155.7 273.57 155.71 273.97C155.71 274.69 155.59 275.22 155.37 275.54ZM166.95 275.54C166.72 275.85 166.35 276.01 165.83 276.01Q165.42 276.01 165.13 275.83Q164.92 275.7 164.77 275.48C164.53 275.12 164.41 274.62 164.41 273.97C164.41 273.31 164.54 272.83 164.81 272.53C165.07 272.22 165.42 272.07 165.85 272.07C166.19 272.07 166.47 272.15 166.67 272.29C166.88 272.44 167.04 272.66 167.13 272.94C167.23 273.22 167.28 273.57 167.29 273.97C167.29 274.69 167.17 275.22 166.95 275.54ZM193.3 275.54C193.07 275.85 192.7 276.01 192.18 276.01Q191.77 276.01 191.48 275.83Q191.27 275.7 191.12 275.48C190.88 275.12 190.76 274.62 190.76 273.97C190.76 273.31 190.89 272.83 191.16 272.53C191.42 272.22 191.77 272.07 192.2 272.07C192.54 272.07 192.81 272.15 193.02 272.29C193.23 272.44 193.38 272.66 193.48 272.94C193.58 273.22 193.63 273.57 193.64 273.97C193.64 274.69 193.52 275.22 193.3 275.54ZM97.49 275.76C97.27 275.91 97.01 275.99 96.7 275.99C96.36 275.99 96.08 275.9 95.87 275.73C95.65 275.56 95.5 275.32 95.4 275.03C95.3 274.73 95.25 274.4 95.25 274.04C95.25 273.63 95.3 273.27 95.41 272.98C95.53 272.69 95.69 272.46 95.91 272.31Q95.94 272.29 95.98 272.26Q96.28 272.07 96.7 272.07Q97.18 272.07 97.49 272.31Q97.51 272.32 97.53 272.34C97.74 272.51 97.9 272.74 97.99 273.04C98.09 273.33 98.14 273.67 98.14 274.04C98.14 274.44 98.08 274.79 97.97 275.08C97.86 275.37 97.7 275.6 97.49 275.76ZM132.08 275.76C131.86 275.91 131.6 275.99 131.29 275.99C130.95 275.99 130.67 275.9 130.46 275.73C130.24 275.56 130.09 275.32 129.99 275.03Q129.84 274.58 129.84 274.04C129.84 273.63 129.89 273.27 130 272.98C130.12 272.69 130.28 272.46 130.5 272.31Q130.53 272.29 130.57 272.26Q130.87 272.07 131.29 272.07C131.63 272.07 131.91 272.16 132.12 272.34C132.33 272.51 132.49 272.74 132.58 273.04C132.68 273.33 132.73 273.67 132.73 274.04C132.73 274.44 132.67 274.79 132.56 275.08C132.45 275.37 132.29 275.6 132.08 275.76ZM209.06 275.76C208.85 275.91 208.58 275.99 208.27 275.99C207.93 275.99 207.65 275.9 207.44 275.73C207.23 275.56 207.07 275.32 206.97 275.03C206.87 274.73 206.82 274.4 206.82 274.04C206.82 273.63 206.87 273.27 206.98 272.98C207.1 272.69 207.26 272.46 207.48 272.31Q207.51 272.29 207.55 272.26Q207.85 272.07 208.27 272.07C208.61 272.07 208.89 272.16 209.1 272.34C209.31 272.51 209.47 272.74 209.56 273.04Q209.71 273.48 209.71 274.04C209.71 274.44 209.65 274.79 209.54 275.08C209.43 275.37 209.27 275.6 209.06 275.76ZM230.71 275.76C230.5 275.91 230.23 275.99 229.92 275.99C229.58 275.99 229.3 275.9 229.09 275.73C228.88 275.56 228.72 275.32 228.62 275.03C228.52 274.73 228.47 274.4 228.47 274.04C228.47 273.63 228.52 273.27 228.63 272.98C228.75 272.69 228.91 272.46 229.13 272.31C229.35 272.15 229.61 272.07 229.92 272.07C230.26 272.07 230.54 272.16 230.75 272.34C230.96 272.51 231.12 272.74 231.21 273.04C231.31 273.33 231.36 273.67 231.36 274.04C231.36 274.44 231.3 274.79 231.19 275.08C231.08 275.37 230.92 275.6 230.71 275.76ZM106.24 275.96C106.07 276.02 105.9 276.06 105.72 276.06C105.4 276.06 105.14 275.97 104.94 275.81C104.74 275.65 104.64 275.42 104.64 275.13Q104.64 274.78 104.81 274.55Q104.82 274.53 104.83 274.51C104.97 274.36 105.16 274.24 105.43 274.17C105.69 274.1 106.02 274.06 106.42 274.05L107.19 274.04L107.19 274.92C107.18 275.06 107.14 275.2 107.05 275.34C106.97 275.47 106.86 275.6 106.71 275.71C106.57 275.81 106.41 275.9 106.24 275.96ZM117.17 275.96C117 276.02 116.82 276.06 116.65 276.06C116.33 276.06 116.07 275.97 115.87 275.81C115.67 275.65 115.57 275.42 115.57 275.13Q115.57 274.78 115.73 274.55Q115.75 274.53 115.76 274.51C115.89 274.36 116.09 274.24 116.36 274.17C116.62 274.1 116.95 274.06 117.35 274.05L118.12 274.04L118.12 274.92C118.11 275.06 118.07 275.2 117.98 275.34C117.9 275.47 117.78 275.6 117.64 275.71C117.5 275.81 117.34 275.9 117.17 275.96ZM159.85 282.35L158.59 282.35L158.59 283.35C158.3 283.39 158.02 283.46 157.77 283.57C157.34 283.75 157 284.01 156.75 284.34Q156.65 284.47 156.58 284.62Q156.39 285.02 156.39 285.51C156.39 286.07 156.56 286.51 156.89 286.84C157.23 287.17 157.67 287.39 158.22 287.5L159.4 287.75C159.76 287.83 160.02 287.94 160.19 288.07C160.36 288.2 160.44 288.4 160.44 288.67C160.44 288.84 160.39 288.99 160.28 289.13C160.18 289.26 160.03 289.37 159.84 289.45C159.66 289.53 159.45 289.57 159.21 289.57C158.81 289.57 158.48 289.48 158.21 289.31C157.95 289.14 157.77 288.89 157.69 288.56L156.17 288.59C156.25 289.31 156.56 289.85 157.1 290.2C157.5 290.46 157.99 290.62 158.56 290.68L158.56 291.57L159.82 291.57L159.82 290.68Q160.3 290.62 160.68 290.47C161.1 290.29 161.42 290.06 161.65 289.75C161.88 289.44 161.99 289.07 161.99 288.66Q161.99 288.01 161.72 287.52Q161.65 287.39 161.55 287.27C161.26 286.89 160.79 286.62 160.13 286.47L158.97 286.18C158.58 286.08 158.31 285.97 158.16 285.85C158.02 285.72 157.95 285.56 157.95 285.35C157.95 285.21 157.98 285.09 158.04 284.99C158.1 284.88 158.19 284.79 158.3 284.71C158.41 284.63 158.55 284.57 158.7 284.53C158.86 284.48 159.04 284.46 159.24 284.46C159.63 284.46 159.9 284.55 160.07 284.74Q160.32 285.01 160.39 285.49L161.86 285.47C161.87 285.07 161.77 284.71 161.55 284.38C161.34 284.05 161.03 283.79 160.63 283.6C160.4 283.48 160.14 283.4 159.85 283.35L159.85 282.35ZM172.03 284.26C171.53 283.61 170.85 283.29 169.99 283.29C169.42 283.29 168.92 283.44 168.51 283.73C168.09 284.01 167.77 284.43 167.54 284.99C167.32 285.55 167.2 286.23 167.2 287.03C167.2 288.22 167.45 289.14 167.94 289.78C168.43 290.41 169.12 290.73 169.99 290.73C170.87 290.73 171.55 290.41 172.04 289.78C172.53 289.14 172.77 288.22 172.77 287.02C172.77 285.82 172.52 284.9 172.03 284.26ZM184.26 290.47C184.65 290.64 185.07 290.73 185.52 290.73C186.16 290.73 186.7 290.59 187.16 290.31Q187.24 290.25 187.32 290.2Q187.89 289.77 188.21 289.01C188.45 288.44 188.58 287.72 188.58 286.85C188.58 286.13 188.46 285.5 188.22 284.97C187.98 284.43 187.64 284.02 187.19 283.73C186.75 283.44 186.22 283.29 185.61 283.29C185.06 283.29 184.58 283.4 184.18 283.6C183.77 283.82 183.45 284.1 183.23 284.48C183 284.85 182.89 285.27 182.89 285.74C182.89 286.21 182.99 286.62 183.21 286.96C183.42 287.3 183.72 287.56 184.1 287.75C184.48 287.93 184.91 288.03 185.4 288.03C185.67 288.03 185.92 287.99 186.14 287.92C186.36 287.85 186.55 287.75 186.71 287.62C186.88 287.48 187.01 287.33 187.1 287.15C187.14 287.73 187.1 288.19 186.96 288.55C186.83 288.91 186.64 289.17 186.37 289.33C186.11 289.49 185.81 289.57 185.46 289.57C185.15 289.57 184.89 289.49 184.68 289.32C184.48 289.14 184.34 288.91 184.28 288.63L182.89 288.63C182.92 289.05 183.06 289.42 183.31 289.74C183.55 290.05 183.87 290.3 184.26 290.47ZM194.25 284.26C193.76 283.61 193.08 283.29 192.22 283.29C191.65 283.29 191.15 283.44 190.73 283.73C190.32 284.01 190 284.43 189.77 284.99C189.54 285.55 189.43 286.23 189.43 287.03C189.43 288.22 189.67 289.14 190.16 289.78C190.66 290.41 191.34 290.73 192.22 290.73C193.09 290.73 193.77 290.41 194.26 289.78C194.75 289.14 195 288.22 195 287.02C195 285.82 194.75 284.9 194.25 284.26ZM149.1 290.59C149.44 290.68 149.79 290.72 150.15 290.72C150.73 290.72 151.24 290.63 151.68 290.45C152.12 290.27 152.46 290.02 152.7 289.71C152.95 289.4 153.07 289.04 153.07 288.66C153.07 288.47 153.05 288.26 153.01 288.04C152.97 287.82 152.88 287.6 152.75 287.39C152.62 287.18 152.42 286.99 152.16 286.82C151.9 286.65 151.54 286.52 151.1 286.43L149.86 286.18C149.48 286.09 149.22 285.99 149.08 285.85C148.94 285.73 148.87 285.56 148.87 285.35C148.87 285.21 148.9 285.09 148.96 284.99C149.02 284.88 149.1 284.79 149.21 284.71C149.32 284.63 149.45 284.57 149.61 284.53C149.77 284.48 149.95 284.46 150.14 284.46C150.39 284.46 150.62 284.49 150.82 284.56C151.02 284.63 151.18 284.74 151.31 284.89C151.43 285.04 151.51 285.24 151.54 285.49L153 285.49C152.99 285.08 152.88 284.72 152.66 284.39C152.44 284.05 152.11 283.79 151.69 283.6C151.26 283.4 150.74 283.3 150.12 283.3C149.59 283.3 149.12 283.39 148.7 283.57C148.28 283.75 147.94 284.01 147.7 284.34C147.45 284.67 147.33 285.06 147.34 285.51C147.35 286.07 147.51 286.51 147.83 286.85C148.15 287.18 148.58 287.39 149.13 287.5L150.38 287.75C150.61 287.8 150.82 287.86 151.01 287.93C151.19 288 151.33 288.1 151.44 288.22C151.55 288.33 151.61 288.48 151.61 288.67C151.61 288.87 151.54 289.04 151.41 289.18C151.27 289.31 151.1 289.41 150.88 289.48C150.66 289.54 150.41 289.57 150.15 289.57C149.89 289.57 149.65 289.54 149.44 289.46C149.22 289.38 149.05 289.26 148.91 289.11C148.77 288.96 148.67 288.78 148.62 288.56L147.13 288.56C147.16 288.92 147.27 289.24 147.46 289.51C147.64 289.78 147.88 290 148.16 290.18C148.44 290.36 148.76 290.5 149.1 290.59ZM145.7 289.39C145.89 288.96 145.99 288.45 145.99 287.87L145.99 283.39L144.51 283.39L144.51 287.93C144.51 288.29 144.45 288.59 144.33 288.82C144.21 289.04 144.04 289.21 143.83 289.32C143.61 289.43 143.37 289.48 143.09 289.48Q142.61 289.48 142.27 289.26Q142.17 289.2 142.08 289.11Q141.69 288.74 141.69 287.93L141.69 283.39L140.2 283.39L140.2 287.82C140.2 288.42 140.29 288.93 140.48 289.37C140.67 289.8 140.98 290.13 141.4 290.37C141.82 290.6 142.39 290.72 143.09 290.72C143.79 290.72 144.35 290.6 144.78 290.38C145.2 290.14 145.51 289.81 145.7 289.39ZM164.21 285.21L164.21 290.62L165.69 290.62L165.69 283.39L164.72 283.39C164.69 283.6 164.62 283.78 164.49 283.93C164.36 284.07 164.17 284.19 163.92 284.26C163.66 284.34 163.33 284.38 162.92 284.38L162.92 285.21L164.21 285.21ZM178.33 283.39L176.89 283.39L173.6 287.82L173.6 289.02L176.93 289.02L176.92 290.62L178.33 290.62L178.33 289.02L179.44 289.02L179.44 287.79L178.33 287.79L178.33 283.39ZM131.31 284.35L131.31 283.4L130.37 283.4L130.37 284.35L131.31 284.35ZM125.49 286.13L126.66 286.13L126.66 285.45L125.49 285.45L125.49 283.95L124.81 283.95L124.59 285.45L123.72 285.45L123.72 286.13L124.56 286.13L124.56 289.37C124.56 289.65 124.6 289.88 124.68 290.07C124.76 290.26 124.9 290.4 125.09 290.5C125.29 290.6 125.57 290.65 125.92 290.65C126.11 290.65 126.27 290.64 126.4 290.62C126.53 290.6 126.63 290.58 126.69 290.56L126.69 289.94L126.12 289.94C125.96 289.94 125.84 289.93 125.74 289.91C125.65 289.88 125.59 289.83 125.55 289.75C125.51 289.66 125.49 289.52 125.49 289.34L125.49 286.13ZM186.24 286.73C186.05 286.82 185.86 286.87 185.65 286.87C185.3 286.87 185.01 286.76 184.79 286.56C184.57 286.35 184.46 286.05 184.46 285.68C184.46 285.42 184.51 285.2 184.61 285.01C184.72 284.81 184.86 284.66 185.04 284.56C185.22 284.45 185.42 284.4 185.65 284.4C185.9 284.4 186.12 284.46 186.31 284.58Q186.35 284.61 186.39 284.64Q186.62 284.82 186.75 285.12C186.85 285.35 186.91 285.62 186.9 285.95C186.9 286.1 186.84 286.24 186.72 286.38C186.59 286.52 186.44 286.64 186.24 286.73ZM170.94 288.96C170.74 289.34 170.42 289.54 169.99 289.54C169.56 289.54 169.24 289.34 169.03 288.96Q168.72 288.38 168.72 287.03Q168.72 285.65 169.03 285.04C169.24 284.64 169.56 284.44 169.99 284.44C170.41 284.44 170.73 284.64 170.93 285.04C171.14 285.44 171.24 286.1 171.24 287.03Q171.24 288.38 170.94 288.96ZM193.16 288.96C192.96 289.34 192.65 289.54 192.22 289.54C191.79 289.54 191.47 289.34 191.26 288.96Q190.95 288.38 190.95 287.03Q190.95 285.65 191.26 285.04C191.47 284.64 191.79 284.44 192.21 284.44C192.64 284.44 192.96 284.64 193.16 285.04C193.36 285.44 193.46 286.1 193.46 287.03Q193.46 288.38 193.16 288.96ZM176.93 287.79L174.95 287.79L176.93 285.15L176.93 287.79ZM91.31 290.54C91.56 290.66 91.86 290.72 92.19 290.72C92.56 290.72 92.9 290.64 93.21 290.49C93.52 290.33 93.77 290.05 93.97 289.65L94.04 290.62L94.83 290.62L94.83 287.01Q94.83 286.47 94.6 286.1C94.45 285.85 94.23 285.67 93.93 285.54C93.63 285.41 93.26 285.35 92.81 285.35C92.39 285.35 92.03 285.41 91.73 285.53Q91.33 285.69 91.08 285.98Q91.05 286.02 91.02 286.06C90.85 286.29 90.75 286.57 90.73 286.91L91.55 286.91C91.61 286.6 91.76 286.38 91.98 286.24Q92.02 286.22 92.05 286.2Q92.37 286.03 92.77 286.03C93.17 286.03 93.46 286.12 93.65 286.31Q93.71 286.37 93.76 286.44Q93.94 286.69 93.94 287.06L93.94 287.47L93.01 287.49C92.13 287.51 91.49 287.66 91.09 287.94Q90.9 288.07 90.77 288.25Q90.49 288.63 90.49 289.22Q90.49 289.7 90.7 290.03C90.85 290.25 91.05 290.43 91.31 290.54ZM99.46 285.57C99.17 285.42 98.83 285.35 98.46 285.35C97.96 285.35 97.53 285.46 97.17 285.69C96.82 285.92 96.55 286.23 96.36 286.64C96.18 287.04 96.08 287.51 96.08 288.06C96.08 288.63 96.19 289.12 96.39 289.51Q96.62 289.96 96.97 290.24Q97.09 290.34 97.23 290.42C97.59 290.62 98 290.72 98.46 290.72Q99.01 290.72 99.45 290.51C99.75 290.38 99.99 290.18 100.19 289.93C100.38 289.67 100.49 289.37 100.54 289.03L99.73 289.03C99.7 289.2 99.63 289.36 99.52 289.51C99.42 289.67 99.28 289.79 99.1 289.88C98.93 289.97 98.72 290.01 98.48 290.01Q98 290.01 97.67 289.79Q97.49 289.67 97.35 289.48C97.1 289.12 96.97 288.64 96.97 288.04C96.97 287.39 97.11 286.9 97.39 286.57C97.67 286.26 98.03 286.1 98.47 286.1C98.71 286.1 98.91 286.14 99.09 286.23C99.27 286.32 99.41 286.44 99.51 286.59C99.62 286.74 99.69 286.91 99.72 287.09L100.55 287.09C100.5 286.73 100.38 286.43 100.19 286.17C100 285.91 99.76 285.71 99.46 285.57ZM104.86 285.57C104.56 285.42 104.23 285.35 103.86 285.35C103.35 285.35 102.92 285.46 102.56 285.69C102.21 285.92 101.94 286.23 101.75 286.64C101.57 287.04 101.48 287.51 101.48 288.06C101.48 288.63 101.58 289.12 101.78 289.51C101.98 289.91 102.26 290.21 102.62 290.42C102.98 290.62 103.39 290.72 103.86 290.72Q104.41 290.72 104.85 290.51C105.14 290.38 105.39 290.18 105.58 289.93C105.77 289.67 105.88 289.37 105.93 289.03L105.12 289.03C105.09 289.2 105.02 289.36 104.92 289.51C104.81 289.67 104.67 289.79 104.49 289.88C104.32 289.97 104.11 290.01 103.88 290.01Q103.4 290.01 103.06 289.79Q102.88 289.67 102.75 289.48C102.49 289.12 102.37 288.64 102.37 288.04C102.37 287.39 102.5 286.9 102.78 286.57C103.06 286.26 103.42 286.1 103.86 286.1C104.1 286.1 104.3 286.14 104.48 286.23C104.66 286.32 104.8 286.44 104.91 286.59C105.02 286.74 105.09 286.91 105.12 287.09L105.94 287.09C105.89 286.73 105.77 286.43 105.58 286.17C105.39 285.91 105.15 285.71 104.86 285.57ZM107.99 290.42C108.35 290.62 108.76 290.72 109.24 290.72C109.75 290.72 110.18 290.61 110.53 290.39C110.88 290.16 111.14 289.85 111.32 289.45Q111.59 288.85 111.59 288.06C111.59 287.48 111.49 286.98 111.3 286.58C111.11 286.18 110.83 285.87 110.48 285.67Q109.96 285.35 109.24 285.35C108.73 285.35 108.3 285.46 107.95 285.69C107.59 285.91 107.32 286.23 107.14 286.64C106.96 287.04 106.87 287.51 106.87 288.06C106.87 288.63 106.96 289.11 107.16 289.51Q107.37 289.93 107.7 290.21Q107.84 290.33 107.99 290.42ZM133.75 290.56C134.06 290.67 134.39 290.72 134.75 290.72C135.17 290.72 135.53 290.66 135.82 290.54C136.12 290.41 136.35 290.23 136.5 290.01C136.66 289.78 136.74 289.5 136.74 289.19C136.74 289.06 136.72 288.93 136.68 288.79C136.65 288.65 136.58 288.52 136.49 288.39C136.4 288.26 136.28 288.15 136.12 288.04C135.97 287.94 135.77 287.86 135.53 287.79L134.49 287.54C134.21 287.47 133.99 287.38 133.84 287.28C133.7 287.17 133.62 287.02 133.62 286.84C133.62 286.56 133.73 286.36 133.93 286.23C134.14 286.1 134.41 286.03 134.74 286.03C135.06 286.03 135.31 286.1 135.49 286.25C135.68 286.39 135.8 286.59 135.83 286.84L136.64 286.84C136.63 286.35 136.45 285.98 136.1 285.73C135.76 285.48 135.31 285.35 134.75 285.35C134.31 285.35 133.95 285.42 133.65 285.55C133.36 285.68 133.14 285.87 132.99 286.1C132.85 286.32 132.78 286.59 132.78 286.9Q132.78 287.31 132.97 287.59Q133.05 287.7 133.15 287.79C133.4 288 133.74 288.16 134.15 288.26L135.22 288.53C135.46 288.58 135.63 288.66 135.74 288.78C135.85 288.89 135.91 289.04 135.91 289.24C135.91 289.51 135.8 289.71 135.59 289.84C135.38 289.97 135.1 290.03 134.75 290.03Q134.42 290.03 134.15 289.93C133.97 289.86 133.81 289.76 133.69 289.63C133.57 289.49 133.49 289.32 133.44 289.12L132.6 289.12C132.65 289.49 132.78 289.79 132.98 290.03C133.19 290.27 133.44 290.44 133.75 290.56ZM118.5 285.45L118.5 290.62L119.42 290.62L119.42 287.17C119.42 286.94 119.49 286.75 119.61 286.6C119.74 286.44 119.91 286.33 120.11 286.26C120.31 286.18 120.53 286.14 120.76 286.14C121.1 286.14 121.37 286.24 121.58 286.44C121.8 286.63 121.9 286.93 121.9 287.33L121.9 290.62L122.83 290.62L122.83 287.24C122.83 286.81 122.75 286.45 122.58 286.18C122.42 285.9 122.2 285.7 121.92 285.57C121.65 285.44 121.35 285.38 121.02 285.38C120.74 285.38 120.5 285.41 120.28 285.49C120.07 285.57 119.89 285.67 119.74 285.79C119.6 285.92 119.48 286.06 119.4 286.2L119.4 285.45L118.5 285.45ZM113.85 290.6C114.09 290.68 114.34 290.72 114.61 290.72C114.86 290.72 115.08 290.69 115.29 290.62C115.51 290.54 115.69 290.42 115.84 290.26C115.99 290.1 116.1 289.89 116.16 289.63L116.26 290.62L116.99 290.62L116.99 285.45L116.07 285.45L116.07 288.82C116.07 289.21 115.96 289.51 115.72 289.71C115.49 289.9 115.19 290 114.81 290C114.39 290 114.07 289.9 113.86 289.69C113.66 289.48 113.55 289.2 113.55 288.87L113.55 285.45L112.63 285.45L112.63 288.96C112.63 289.25 112.68 289.51 112.78 289.73C112.89 289.94 113.04 290.12 113.22 290.27C113.4 290.42 113.61 290.53 113.85 290.6ZM131.29 290.62L131.29 285.45L130.4 285.45L130.4 290.62L131.29 290.62ZM110.03 289.76C109.81 289.91 109.55 289.99 109.24 289.99C108.9 289.99 108.62 289.9 108.41 289.73C108.19 289.56 108.04 289.32 107.94 289.03C107.84 288.73 107.79 288.4 107.79 288.04C107.79 287.63 107.84 287.27 107.95 286.98C108.06 286.69 108.23 286.46 108.45 286.31C108.66 286.15 108.93 286.07 109.24 286.07C109.58 286.07 109.86 286.16 110.07 286.34C110.28 286.51 110.43 286.74 110.53 287.04C110.63 287.33 110.68 287.67 110.68 288.04C110.68 288.44 110.62 288.79 110.51 289.08C110.4 289.37 110.24 289.6 110.03 289.76ZM92.99 289.96C92.82 290.02 92.64 290.06 92.47 290.06C92.15 290.06 91.89 289.97 91.69 289.81C91.49 289.65 91.39 289.42 91.39 289.13C91.39 288.88 91.45 288.67 91.58 288.51C91.71 288.36 91.91 288.24 92.18 288.17C92.44 288.1 92.77 288.06 93.17 288.05L93.94 288.04L93.94 288.92C93.93 289.06 93.89 289.2 93.8 289.34C93.72 289.47 93.6 289.6 93.46 289.71C93.32 289.81 93.16 289.9 92.99 289.96ZM180.23 289.03L180.23 290.62L181.83 290.62L181.83 289.03L180.23 289.03ZM195.98 289.44L195.98 290.62L197.08 290.62L197.08 289.44L195.98 289.44Z" fill="#36536B" fill-opacity="1.000000" fill-rule="evenodd"/>
	</g>
	<rect id="Group 29" width="218.000000" height="87.000000" transform="translate(74.000000 221.000000)" stroke="#979797" stroke-opacity="1.000000" stroke-width="1.000000"/>
</svg>
